<?xml version="1.0" encoding="UTF-8" standalone="no"?>
<svg
   version="1.1"
   viewBox="0 0 841.89 595.28"
   id="svg155"
   sodipodi:docname="bora.svgz"
   xmlns:inkscape="http://www.inkscape.org/namespaces/inkscape"
   xmlns:sodipodi="http://sodipodi.sourceforge.net/DTD/sodipodi-0.dtd"
   xmlns="http://www.w3.org/2000/svg"
   xmlns:svg="http://www.w3.org/2000/svg">
  <sodipodi:namedview
     id="namedview157"
     pagecolor="#ffffff"
     bordercolor="#000000"
     borderopacity="0.25"
     inkscape:showpageshadow="2"
     inkscape:pageopacity="0.0"
     inkscape:pagecheckerboard="0"
     inkscape:deskcolor="#d1d1d1" />
  <defs
     id="defs4">
    <style
       id="style2">
      .cls-1, .cls-2, .cls-3, .cls-4, .cls-5 {
        display: none;
      }

      .cls-1, .cls-6 {
        fill: #6d195b;
      }

      .cls-2, .cls-7 {
        fill: #010001;
      }

      .cls-3, .cls-8 {
        fill: #f84300;
      }

      .cls-5 {
        fill: #dd33b1;
      }
    </style>
  </defs>
  <!-- Generator: Adobe Illustrator 28.7.1, SVG Export Plug-In . SVG Version: 1.2.0 Build 142)  -->
  <g
     id="g153">
    <g
       id="Camada_1">
      <path
         class="cls-2"
         d="M-2925.45,121.42c0-.81-.01-1.62-.02-2.43,0,.81,0,1.62,0,2.43.01,1.03-.02,2.05-.02,3.08,0-1.02.03-2.06.03-3.08Z"
         id="path6" />
      <path
         class="cls-3"
         d="M-2797.86,204.55c0-19.36-.16-38.72.1-58.08.07-5.25-1.34-7.25-6.85-7.04-10.08.39-20.18.08-30.27.14-2.09.01-4.67-.77-5.94,1.63-2.69,5.09-6.3,3.45-10.38,2.09-17.31-5.76-34.38-5.19-50.64,3.46-28.62,15.23-40.73,49.69-29.04,81.72,10.82,29.61,39.94,45.01,72.32,38.88,6.3-1.2,13.49-7.64,19.65,1,.49.68,2.6.26,3.96.26,10.1.02,20.2-.28,30.28.12,5.43.22,6.99-1.6,6.91-6.92-.27-19.09-.1-38.18-.1-57.26ZM-2866.88,227.23c-11.64.24-23.01-11.15-23.06-23.08-.04-11.84,11.28-23.07,23.12-22.92,12.13.15,23.16,11.12,23.11,22.97-.06,11.91-11,22.79-23.17,23.03Z"
         id="path8" />
      <path
         class="cls-3"
         d="M-3149.17,192.35c-6.6-32.47-31.75-53-65.01-53.07-13.3-.03-18.2-2.91-22.25-14.65-1.24-3.61-3.05-3.76-5.87-3.75-10.1.04-20.22.32-30.3-.11-5.65-.24-6.82,2-6.75,7.12.24,19.09.09,38.2.09,57.3s.2,38.2-.13,57.3c-.09,5.2,1.56,7.34,6.62,7.64,7.82.46,14.85,3.48,21.23,7.8,13.36,9.06,27.94,12.38,44.03,11.14,37.99-2.93,65.93-39.4,58.34-76.72ZM-3213.87,227.27c-12.15-.03-23.17-11.05-23.04-23.04.13-12.16,10.93-22.77,23.15-22.75,12.19.01,22.89,10.67,22.99,22.91.11,11.75-11.17,22.91-23.1,22.88Z"
         id="path10" />
      <path
         class="cls-3"
         d="M-3072.87,139.28c-37.78-.06-65.86,27.72-65.88,65.17-1.54,28.12,20.37,64.78,65.22,65.13,38.1.3,65.59-28.46,65.85-65.73.25-35.98-29.12-64.51-65.19-64.57ZM-3073.28,227.25c-12.05.11-23.18-10.84-23.2-22.81-.02-12.01,10.79-22.91,22.9-23.11,11.83-.19,23.28,11.01,23.33,22.82.06,11.91-10.99,22.99-23.03,23.1Z"
         id="path12" />
      <path
         class="cls-3"
         d="M-2936.71,144.35c-10.85,1.78-14.98,12.47-15,23.55-.03,23.99-.2,47.99.13,71.98.09,5.92-1.17,8.16-7.54,7.78-9.78-.58-19.63-.33-29.45-.08-4.33.11-5.57-1.45-5.56-5.66.13-38.45.17-76.89-.04-115.33-.03-4.81,2.09-6.24,6.09-6.59,8.1-.71,15.07-4.09,21.69-8.62,10.8-7.39,22.64-11.57,35.93-11.47,3.95.03,5.25,1.29,5.07,5.16-.06,1.17-.09,2.34-.11,3.52-.02,1.01-.03,2.03-.03,3.05,0,.83,0,1.66,0,2.49.01,1.62.04,3.23.05,4.85h0c0,.82.02,1.63.02,2.44,0,1.02-.03,2.06-.03,3.08,0,.61.01,1.22.04,1.83.44,8.58,1.67,15.89-11.27,18.02Z"
         id="path14" />
      <path
         class="cls-3"
         d="M-3081.41,425.63c0-19.36-.16-38.72.1-58.08.07-5.25-1.34-7.25-6.85-7.04-10.08.39-20.18.08-30.27.14-2.09.01-4.67-.77-5.94,1.63-2.69,5.09-6.3,3.45-10.38,2.09-17.31-5.76-34.38-5.19-50.64,3.46-28.62,15.23-40.73,49.69-29.04,81.72,10.82,29.61,39.94,45.01,72.32,38.88,6.3-1.2,13.49-7.64,19.65,1,.49.68,2.6.26,3.96.26,10.1.02,20.2-.28,30.28.12,5.43.22,6.99-1.6,6.91-6.92-.27-19.09-.1-38.18-.1-57.26ZM-3150.43,448.31c-11.64.24-23.01-11.15-23.06-23.08-.04-11.84,11.28-23.07,23.12-22.92,12.13.15,23.16,11.12,23.11,22.97-.06,11.91-11,22.79-23.17,23.03Z"
         id="path16" />
      <path
         class="cls-3"
         d="M-3345.42,331.37c-16.09-1.24-30.67,2.08-44.03,11.14-6.38,4.32-13.41,7.34-21.23,7.8-5.06.3-6.71,2.44-6.62,7.64.33,19.1.13,38.2.13,57.3,0,19.1.15,38.21-.09,57.3-.07,5.12,1.1,7.36,6.75,7.12,10.08-.43,20.2-.15,30.3-.11,2.82,0,4.63-.14,5.87-3.75,4.05-11.74,8.95-14.62,22.25-14.65,33.26-.07,58.41-20.6,65.01-53.07,7.59-37.32-20.35-73.79-58.34-76.72ZM-3328.68,396.05c-.1,12.24-10.8,22.9-22.99,22.91-12.22.02-23.02-10.59-23.15-22.75-.13-11.99,10.89-23.01,23.04-23.04,11.93-.03,23.21,11.13,23.1,22.88Z"
         id="path18" />
      <path
         class="cls-3"
         d="M-3220.26,365.43c-10.85,1.78-14.98,12.47-15,23.55-.03,23.99-.2,47.99.13,71.98.09,5.92-1.17,8.16-7.54,7.78-9.78-.58-19.63-.33-29.45-.08-4.33.11-5.57-1.45-5.56-5.66.13-38.45.17-76.89-.04-115.33-.03-4.81,2.09-6.24,6.09-6.59,8.1-.71,15.07-4.09,21.69-8.62,10.8-7.39,22.64-11.57,35.93-11.47,3.95.03,5.25,1.29,5.07,5.16-.06,1.17-.09,2.34-.11,3.52-.02,1.01-.03,2.03-.03,3.05,0,.83,0,1.66,0,2.49.01,1.62.04,3.23.05,4.85h0c0,.82.02,1.63.02,2.44,0,1.02-.03,2.06-.03,3.08,0,.61.01,1.22.04,1.83.44,8.58,1.67,15.89-11.27,18.02Z"
         id="path20" />
      <path
         class="cls-3"
         d="M-2654.6,392.59c0-19.36-.16-38.72.1-58.08.07-5.25-1.34-7.25-6.85-7.04-10.08.39-20.18.08-30.27.14-2.09.01-4.67-.77-5.94,1.63-2.69,5.09-6.3,3.45-10.38,2.09-17.31-5.76-34.38-5.19-50.64,3.46-28.62,15.23-40.73,49.69-29.04,81.72,10.82,29.61,39.94,45.01,72.32,38.88,6.3-1.2,13.49-7.64,19.65,1,.49.68,2.6.26,3.96.26,10.1.02,20.2-.28,30.28.12,5.43.22,6.99-1.6,6.91-6.92-.27-19.09-.1-38.18-.1-57.26ZM-2723.62,415.27c-11.64.24-23.01-11.15-23.06-23.08-.04-11.84,11.28-23.07,23.12-22.92,12.13.15,23.16,11.12,23.11,22.97-.06,11.91-11,22.79-23.17,23.03Z"
         id="path22" />
      <path
         class="cls-3"
         d="M-2956.88,367.03c-10.85,1.78-14.98,12.47-15,23.55-.03,23.99-.2,47.99.13,71.98.09,5.92-1.17,8.16-7.54,7.78-9.78-.58-19.63-.33-29.45-.08-4.33.11-5.57-1.45-5.56-5.66.13-38.45.17-76.89-.04-115.33-.03-4.81,2.09-6.24,6.09-6.59,8.1-.71,15.07-4.09,21.69-8.62,10.8-7.39,22.64-11.57,35.93-11.47,3.95.03,5.25,1.29,5.07,5.16-.06,1.17-.09,2.34-.11,3.52-.02,1.01-.03,2.03-.03,3.05,0,.83,0,1.66,0,2.49.01,1.62.04,3.23.05,4.85h0c0,.82.02,1.63.02,2.44,0,1.02-.03,2.06-.03,3.08,0,.61.01,1.22.04,1.83.44,8.58,1.67,15.89-11.27,18.02Z"
         id="path24" />
      <path
         class="cls-3"
         d="M-2808.68,360.7l-31.46-.02c-2.63,0-4.79,2.11-5.07,4.8,0,0-.03,0-.04.02v59.29c0,.34,0,.67-.04,1.01-.61,11.39-10.58,21.55-21.63,21.78-10.56.23-20.88-10.37-21.53-21.78-.03-.36-.04-.7-.04-1.06v-61.61c-.17.05-.34.11-.51.17-.74-2.1-2.45-2.92-5.82-2.78l-31.06-.02c-2.6,0-4.73,2.11-5,4.8-.03.2-.04.41-.04.6v58.5c0,8.05,1.34,16.31,4.13,24.41,6.58,19.07,20.41,32.18,37.62,37.33,9.23,2.78,19.43,3.26,30.01,1.14,4.46-.9,9.41-4.78,14.05-2.88,1.48.6,2.94,1.8,4.33,3.87.05.07.1.12.18.17.12.09.29.14.49.17,0,0,0,0,.02,0,.5.09,1.17.04,1.83-.02.42-.03.83-.06,1.19-.06h.95c3.88,0,7.75-.05,11.62-.08h.29c2.28,0,4.56-.02,6.85,0h.03c1.9,0,3.8.04,5.7.1.95.03,1.91.06,2.87.1,5.08.22,6.54-1.58,6.46-6.85-.25-18.89-.09-37.78-.09-56.66s-.15-38.31.09-57.47c.07-5.19-1.25-7.17-6.41-6.97Z"
         id="path26" />
      <path
         class="cls-5"
         d="M-2680.53,333.85"
         id="path28" />
      <path
         class="cls-1"
         d="M-2913.31,420.11h-.04v-1.07c0,.36,0,.71.04,1.07Z"
         id="path30" />
      <path
         class="cls-1"
         d="M-2867.12,419.09v1.02h-.04c.03-.34.04-.68.04-1.02Z"
         id="path32" />
      <path
         class="cls-2"
         d="M-2023.85,95.29c0-.81-.01-1.62-.02-2.43,0,.81,0,1.62,0,2.43.01,1.03-.02,2.05-.02,3.08,0-1.02.03-2.06.03-3.08Z"
         id="path34" />
      <path
         class="cls-3"
         d="M-1896.26,178.42c0-19.36-.16-38.72.1-58.08.07-5.25-1.34-7.25-6.85-7.04-10.08.39-20.18.08-30.27.14-2.09.01-4.67-.77-5.94,1.63-2.69,5.09-6.3,3.45-10.38,2.09-17.31-5.76-34.38-5.19-50.64,3.46-28.62,15.23-40.73,49.69-29.04,81.72,10.82,29.61,39.94,45.01,72.32,38.88,6.3-1.2,13.49-7.64,19.65,1,.49.68,2.6.26,3.96.26,10.1.02,20.2-.28,30.28.12,5.43.22,6.99-1.6,6.91-6.92-.27-19.09-.1-38.18-.1-57.26ZM-1965.28,201.1c-11.64.24-23.01-11.15-23.06-23.08-.04-11.84,11.28-23.07,23.12-22.92,12.13.15,23.16,11.12,23.11,22.97-.06,11.91-11,22.79-23.17,23.03Z"
         id="path36" />
      <path
         class="cls-3"
         d="M-2247.57,166.22c-6.6-32.47-31.75-53-65.01-53.07-13.3-.03-18.2-2.91-22.25-14.65-1.24-3.61-3.05-3.76-5.87-3.75-10.1.04-20.22.32-30.3-.11-5.65-.24-6.82,2-6.75,7.12.24,19.09.09,38.2.09,57.3s.2,38.2-.13,57.3c-.09,5.2,1.56,7.34,6.62,7.64,7.82.46,14.85,3.48,21.23,7.8,13.36,9.06,27.94,12.38,44.03,11.14,37.99-2.93,65.93-39.4,58.34-76.72ZM-2312.27,201.14c-12.15-.03-23.17-11.05-23.04-23.04.13-12.16,10.93-22.77,23.15-22.75,12.19.01,22.89,10.67,22.99,22.91.11,11.75-11.17,22.91-23.1,22.88Z"
         id="path38" />
      <path
         class="cls-3"
         d="M-2171.27,113.15c-37.78-.06-65.86,27.72-65.88,65.17-1.54,28.12,20.37,64.78,65.22,65.13,38.1.3,65.59-28.46,65.85-65.73.25-35.98-29.12-64.51-65.19-64.57ZM-2171.68,201.12c-12.05.11-23.18-10.84-23.2-22.81-.02-12.01,10.79-22.91,22.9-23.11,11.83-.19,23.28,11.01,23.33,22.82.06,11.91-10.99,22.99-23.03,23.1Z"
         id="path40" />
      <path
         class="cls-3"
         d="M-2035.11,118.22c-10.85,1.78-14.98,12.47-15,23.55-.03,23.99-.2,47.99.13,71.98.09,5.92-1.17,8.16-7.54,7.78-9.78-.58-19.63-.33-29.45-.08-4.33.11-5.57-1.45-5.56-5.66.13-38.45.17-76.89-.04-115.33-.03-4.81,2.09-6.24,6.09-6.59,8.1-.71,15.07-4.09,21.69-8.62,10.8-7.39,22.64-11.57,35.93-11.47,3.95.03,5.25,1.29,5.07,5.16-.06,1.17-.09,2.34-.11,3.52-.02,1.01-.03,2.03-.03,3.05,0,.83,0,1.66,0,2.49.01,1.62.04,3.23.05,4.85h0c0,.82.02,1.63.02,2.44,0,1.02-.03,2.06-.03,3.08,0,.61.01,1.22.04,1.83.44,8.58,1.67,15.89-11.27,18.02Z"
         id="path42" />
      <path
         class="cls-3"
         d="M-2271.93,317.11c0-8.82-.07-17.63.05-26.45.03-2.39-.61-3.3-3.12-3.21-4.59.18-9.19.04-13.79.06-.95,0-2.13-.35-2.71.74-1.23,2.32-2.87,1.57-4.73.95-7.88-2.62-15.66-2.36-23.06,1.58-13.03,6.94-18.55,22.63-13.23,37.22,4.93,13.49,18.19,20.5,32.94,17.71,2.87-.55,6.14-3.48,8.95.46.22.31,1.18.12,1.8.12,4.6,0,9.2-.13,13.79.05,2.47.1,3.18-.73,3.15-3.15-.12-8.69-.05-17.39-.05-26.08ZM-2303.36,327.44c-5.3.11-10.48-5.08-10.5-10.51-.02-5.39,5.14-10.51,10.53-10.44,5.52.07,10.55,5.06,10.52,10.46-.03,5.42-5.01,10.38-10.55,10.49Z"
         id="path44" />
      <path
         class="cls-3"
         d="M-2392.16,274.19c-7.33-.56-13.97.95-20.05,5.07-2.91,1.97-6.11,3.34-9.67,3.55-2.3.14-3.06,1.11-3.01,3.48.15,8.7.06,17.4.06,26.1s.07,17.4-.04,26.1c-.03,2.33.5,3.35,3.07,3.24,4.59-.2,9.2-.07,13.8-.05,1.28,0,2.11-.06,2.67-1.71,1.84-5.35,4.08-6.66,10.13-6.67,15.15-.03,26.6-9.38,29.61-24.17,3.46-17-9.27-33.61-26.57-34.94ZM-2384.54,303.64c-.05,5.57-4.92,10.43-10.47,10.43-5.57,0-10.48-4.82-10.54-10.36-.06-5.46,4.96-10.48,10.49-10.49,5.43-.01,10.57,5.07,10.52,10.42Z"
         id="path46" />
      <path
         class="cls-3"
         d="M-2335.16,289.7c-4.94.81-6.82,5.68-6.83,10.73-.01,10.93-.09,21.86.06,32.78.04,2.7-.53,3.72-3.43,3.54-4.45-.26-8.94-.15-13.41-.04-1.97.05-2.54-.66-2.53-2.58.06-17.51.08-35.02-.02-52.52-.01-2.19.95-2.84,2.77-3,3.69-.32,6.86-1.86,9.88-3.93,4.92-3.37,10.31-5.27,16.36-5.22,1.8.01,2.39.59,2.31,2.35-.03.53-.04,1.07-.05,1.6,0,.46-.01.92-.01,1.39,0,.38,0,.76,0,1.13,0,.74.02,1.47.02,2.21h0c0,.37,0,.74,0,1.11,0,.46-.01.94-.01,1.4,0,.28,0,.56.02.83.2,3.91.76,7.24-5.13,8.21Z"
         id="path48" />
      <path
         class="cls-3"
         d="M-1849.49,348c0-19.36-.16-38.72.1-58.08.07-5.25-1.34-7.25-6.85-7.04-10.08.39-20.18.08-30.27.14-2.09.01-4.67-.77-5.94,1.63-2.69,5.09-6.3,3.45-10.38,2.09-17.31-5.76-34.38-5.19-50.64,3.46-28.62,15.23-40.73,49.69-29.04,81.72,10.82,29.61,39.94,45.01,72.32,38.88,6.3-1.2,13.49-7.64,19.65,1,.49.68,2.6.26,3.96.26,10.1.02,20.2-.28,30.28.12,5.43.22,6.99-1.6,6.91-6.92-.27-19.09-.1-38.18-.1-57.26ZM-1918.51,370.68c-11.64.24-23.01-11.15-23.06-23.08-.04-11.84,11.28-23.07,23.12-22.92,12.13.15,23.16,11.12,23.11,22.97-.06,11.91-11,22.79-23.17,23.03Z"
         id="path50" />
      <path
         class="cls-3"
         d="M-2151.76,322.44c-10.85,1.78-14.98,12.47-15,23.55-.03,23.99-.2,47.99.13,71.98.09,5.92-1.17,8.16-7.54,7.78-9.78-.58-19.63-.33-29.45-.08-4.33.11-5.57-1.45-5.56-5.66.13-38.45.17-76.89-.04-115.33-.03-4.81,2.09-6.24,6.09-6.59,8.1-.71,15.07-4.09,21.69-8.62,10.8-7.39,22.64-11.57,35.93-11.47,3.95.03,5.25,1.29,5.07,5.16-.06,1.17-.09,2.34-.11,3.52-.02,1.01-.03,2.03-.03,3.05,0,.83,0,1.66,0,2.49.01,1.62.04,3.23.05,4.85h0c0,.82.02,1.63.02,2.44,0,1.02-.03,2.06-.03,3.08,0,.61.01,1.22.04,1.83.44,8.58,1.67,15.89-11.27,18.02Z"
         id="path52" />
      <path
         class="cls-3"
         d="M-2003.57,316.11l-31.46-.02c-2.63,0-4.79,2.11-5.07,4.8,0,0-.03,0-.04.02v59.29c0,.34,0,.67-.04,1.01-.61,11.39-10.58,21.55-21.63,21.78-10.56.23-20.88-10.37-21.53-21.78-.03-.36-.04-.7-.04-1.06v-61.61c-.17.05-.34.11-.51.17-.74-2.1-2.45-2.92-5.82-2.78l-31.06-.02c-2.6,0-4.73,2.11-5,4.8-.03.2-.04.41-.04.6v58.5c0,8.05,1.34,16.31,4.13,24.41,6.58,19.07,20.41,32.18,37.62,37.33,9.23,2.78,19.43,3.26,30.01,1.14,4.46-.9,9.41-4.78,14.05-2.88,1.48.6,2.94,1.8,4.33,3.87.05.07.1.12.18.17.12.09.29.14.49.17,0,0,0,0,.02,0,.5.09,1.17.04,1.83-.02.42-.03.83-.06,1.19-.06h.95c3.88,0,7.75-.05,11.62-.08h.29c2.28,0,4.56-.02,6.85,0h.03c1.9,0,3.8.04,5.7.1.95.03,1.91.06,2.87.1,5.08.22,6.54-1.58,6.46-6.85-.25-18.89-.09-37.78-.09-56.66s-.15-38.31.09-57.47c.07-5.19-1.25-7.17-6.41-6.97Z"
         id="path54" />
      <path
         class="cls-1"
         d="M-2108.19,375.52h-.04v-1.07c0,.36,0,.71.04,1.07Z"
         id="path56" />
      <path
         class="cls-1"
         d="M-2062,374.5v1.02h-.04c.03-.34.04-.68.04-1.02Z"
         id="path58" />
      <path
         class="cls-2"
         d="M-1323.02,101.95c0-.81-.01-1.62-.02-2.43,0,.81,0,1.62,0,2.43.01,1.03-.02,2.05-.02,3.08,0-1.02.03-2.06.03-3.08Z"
         id="path60" />
      <g
         class="cls-4"
         id="g70">
        <path
           class="cls-8"
           d="M-1074.32,185.08c0-19.36-.16-38.72.1-58.08.07-5.25-1.34-7.25-6.85-7.04-10.08.39-20.18.08-30.27.14-2.09.01-4.67-.77-5.94,1.63-2.69,5.09-6.3,3.45-10.38,2.09-17.31-5.76-34.38-5.19-50.64,3.46-28.62,15.23-40.73,49.69-29.04,81.72,10.82,29.61,39.94,45.01,72.32,38.88,6.3-1.2,13.49-7.64,19.65,1,.49.68,2.6.26,3.96.26,10.1.02,20.2-.28,30.28.12,5.43.22,6.99-1.6,6.91-6.92-.27-19.09-.1-38.18-.1-57.26ZM-1143.34,207.76c-11.64.24-23.01-11.15-23.06-23.08-.04-11.84,11.28-23.07,23.12-22.92,12.13.15,23.16,11.12,23.11,22.97-.06,11.91-11,22.79-23.17,23.03Z"
           id="path62" />
        <path
           class="cls-8"
           d="M-1425.63,172.88c-6.6-32.47-31.75-53-65.01-53.07-13.3-.03-18.2-2.91-22.25-14.65-1.24-3.61-3.05-3.76-5.87-3.75-10.1.04-20.22.32-30.3-.11-5.65-.24-6.82,2-6.75,7.12.24,19.09.09,38.2.09,57.3s.2,38.2-.13,57.3c-.09,5.2,1.56,7.34,6.62,7.64,7.82.46,14.85,3.48,21.23,7.8,13.36,9.06,27.94,12.38,44.03,11.14,37.99-2.93,65.93-39.4,58.34-76.72ZM-1490.33,207.8c-12.15-.03-23.17-11.05-23.04-23.04.13-12.16,10.93-22.77,23.15-22.75,12.19.01,22.89,10.67,22.99,22.91.11,11.75-11.17,22.91-23.1,22.88Z"
           id="path64" />
        <path
           class="cls-8"
           d="M-1349.33,119.81c-37.78-.06-65.86,27.72-65.88,65.17-1.54,28.12,20.37,64.78,65.22,65.13,38.1.3,65.59-28.46,65.85-65.73.25-35.98-29.12-64.51-65.19-64.57ZM-1349.74,207.78c-12.05.11-23.18-10.84-23.2-22.81-.02-12.01,10.79-22.91,22.9-23.11,11.83-.19,23.28,11.01,23.33,22.82.06,11.91-10.99,22.99-23.03,23.1Z"
           id="path66" />
        <path
           class="cls-8"
           d="M-1213.17,124.88c-10.85,1.78-14.98,12.47-15,23.55-.03,23.99-.2,47.99.13,71.98.09,5.92-1.17,8.16-7.54,7.78-9.78-.58-19.63-.33-29.45-.08-4.33.11-5.57-1.45-5.56-5.66.13-38.45.17-76.89-.04-115.33-.03-4.81,2.09-6.24,6.09-6.59,8.1-.71,15.07-4.09,21.69-8.62,10.8-7.39,22.64-11.57,35.93-11.47,3.95.03,5.25,1.29,5.07,5.16-.06,1.17-.09,2.34-.11,3.52-.02,1.01-.03,2.03-.03,3.05,0,.83,0,1.66,0,2.49.01,1.62.04,3.23.05,4.85h0c0,.82.02,1.63.02,2.44,0,1.02-.03,2.06-.03,3.08,0,.61.01,1.22.04,1.83.44,8.58,1.67,15.89-11.27,18.02Z"
           id="path68" />
      </g>
      <g
         class="cls-4"
         id="g78">
        <path
           class="cls-8"
           d="M-1269.18,296.79c0-5.29-.04-10.58.03-15.86.02-1.43-.37-1.98-1.87-1.92-2.75.11-5.51.02-8.27.04-.57,0-1.28-.21-1.62.45-.73,1.39-1.72.94-2.84.57-4.73-1.57-9.39-1.42-13.83.95-7.82,4.16-11.13,13.57-7.93,22.32,2.96,8.09,10.91,12.29,19.75,10.62,1.72-.33,3.68-2.09,5.37.27.13.19.71.07,1.08.07,2.76,0,5.52-.08,8.27.03,1.48.06,1.91-.44,1.89-1.89-.07-5.21-.03-10.43-.03-15.64ZM-1288.03,302.98c-3.18.07-6.29-3.05-6.3-6.3-.01-3.23,3.08-6.3,6.32-6.26,3.31.04,6.33,3.04,6.31,6.27-.02,3.25-3,6.22-6.33,6.29Z"
           id="path72" />
        <path
           class="cls-8"
           d="M-1341.34,279.07c-4.39-.34-8.38.57-12.03,3.04-1.74,1.18-3.66,2-5.8,2.13-1.38.08-1.83.67-1.81,2.09.09,5.22.04,10.43.04,15.65s.04,10.44-.02,15.65c-.02,1.4.3,2.01,1.84,1.94,2.75-.12,5.52-.04,8.28-.03.77,0,1.26-.04,1.6-1.02,1.11-3.21,2.44-3.99,6.08-4,9.08-.02,15.95-5.63,17.76-14.5,2.07-10.19-5.56-20.16-15.94-20.96ZM-1336.76,296.73c-.03,3.34-2.95,6.25-6.28,6.26-3.34,0-6.29-2.89-6.32-6.21-.04-3.27,2.97-6.29,6.29-6.29,3.26,0,6.34,3.04,6.31,6.25Z"
           id="path74" />
        <path
           class="cls-8"
           d="M-1307.1,280.35c-2.96.49-4.09,3.41-4.1,6.43,0,6.55-.05,13.11.04,19.66.02,1.62-.32,2.23-2.06,2.13-2.67-.16-5.36-.09-8.04-.02-1.18.03-1.52-.4-1.52-1.55.04-10.5.05-21-.01-31.5,0-1.31.57-1.7,1.66-1.8,2.21-.19,4.12-1.12,5.92-2.35,2.95-2.02,6.18-3.16,9.81-3.13,1.08,0,1.43.35,1.38,1.41-.02.32-.02.64-.03.96,0,.28,0,.55,0,.83,0,.23,0,.45,0,.68,0,.44.01.88.01,1.32h0c0,.22,0,.45,0,.67,0,.28,0,.56,0,.84,0,.17,0,.33.01.5.12,2.34.46,4.34-3.08,4.92Z"
           id="path76" />
      </g>
      <path
         class="cls-3"
         d="M-1083.58,403.16c0-25.93-.21-51.87.13-77.8.09-7.03-1.8-9.71-9.18-9.43-13.5.52-27.03.11-40.55.19-2.8.01-6.26-1.03-7.96,2.18-3.6,6.82-8.44,4.62-13.91,2.8-23.19-7.72-46.06-6.95-67.84,4.63-38.34,20.4-54.56,66.56-38.9,109.47,14.49,39.67,53.5,60.3,96.88,52.08,8.44-1.61,18.07-10.23,26.32,1.34.66.91,3.48.35,5.3.35,13.53.03,27.06-.38,40.56.16,7.27.29,9.36-2.14,9.26-9.27-.36-25.57-.13-51.15-.13-76.71ZM-1176.04,433.54c-15.59.32-30.82-14.94-30.89-30.92-.05-15.86,15.11-30.9,30.97-30.7,16.25.2,31.03,14.9,30.96,30.77-.08,15.95-14.74,30.53-31.04,30.85Z"
         id="path80" />
      <path
         class="cls-3"
         d="M-1465.08,331.22c-14.53,2.38-20.07,16.7-20.09,31.55-.04,32.14-.27,64.29.17,96.42.12,7.93-1.57,10.93-10.1,10.42-13.1-.78-26.3-.44-39.45-.11-5.8.15-7.46-1.94-7.45-7.58.17-51.51.23-103-.05-154.5-.04-6.44,2.8-8.36,8.16-8.83,10.85-.95,20.19-5.48,29.06-11.55,14.47-9.9,30.33-15.5,48.13-15.37,5.29.04,7.03,1.73,6.79,6.91-.08,1.57-.12,3.13-.15,4.72-.03,1.35-.04,2.72-.04,4.09,0,1.11.01,2.22.01,3.34.01,2.17.05,4.33.07,6.5h0c.01,1.1.03,2.18.03,3.27,0,1.37-.04,2.76-.04,4.13,0,.82.01,1.63.05,2.45.59,11.49,2.24,21.29-15.1,24.14Z"
         id="path82" />
      <path
         class="cls-3"
         d="M-1291.12,332.03l-40.81-.02c-3.41,0-6.21,2.57-6.57,5.86-.01.01-.04.01-.05.02v72.35c0,.41-.01.82-.05,1.23-.79,13.9-13.72,26.3-28.06,26.58-13.7.28-27.09-12.65-27.93-26.58-.04-.43-.05-.86-.05-1.29v-75.19c-.22.06-.44.13-.66.21-.96-2.56-3.18-3.56-7.55-3.39l-40.29-.02c-3.37,0-6.14,2.57-6.49,5.86-.04.24-.05.5-.05.74v71.39c0,9.83,1.73,19.9,5.36,29.79,8.54,23.27,26.48,39.27,48.8,45.56,11.97,3.39,25.21,3.97,38.93,1.39,5.79-1.1,12.2-5.83,18.22-3.51,1.92.74,3.81,2.2,5.62,4.72.06.08.13.14.23.21.16.11.38.17.63.21,0,0,.01-.01.02,0,.64.11,1.52.05,2.38-.02.55-.04,1.08-.07,1.54-.07h1.24c5.03,0,10.06-.06,15.08-.1h.38c2.96-.01,5.92-.02,8.88,0h.04c2.46.01,4.93.05,7.4.12,1.24.04,2.47.07,3.72.12,6.59.27,8.48-1.93,8.38-8.36-.33-23.05-.12-46.1-.12-69.14s-.19-46.75.12-70.13c.08-6.34-1.63-8.75-8.31-8.5Z"
         id="path84" />
      <path
         class="cls-1"
         d="M-1301.01,421.91h-.05v-1.43c0,.48.01.95.05,1.43Z"
         id="path86" />
      <path
         class="cls-1"
         d="M-1301.01,420.54v1.37h-.05c.04-.46.05-.91.05-1.37Z"
         id="path88" />
      <path
         class="cls-2"
         d="M-334.66,112.49c0-.81-.01-1.62-.02-2.43,0,.81,0,1.62,0,2.43.01,1.03-.02,2.05-.02,3.08,0-1.02.03-2.06.03-3.08Z"
         id="path90" />
      <g
         class="cls-4"
         id="g100">
        <path
           class="cls-8"
           d="M-144.14,195.62c0-19.36-.16-38.72.1-58.08.07-5.25-1.34-7.25-6.85-7.04-10.08.39-20.18.08-30.27.14-2.09.01-4.67-.77-5.94,1.63-2.69,5.09-6.3,3.45-10.38,2.09-17.31-5.76-34.38-5.19-50.64,3.46-28.62,15.23-40.73,49.69-29.04,81.72,10.82,29.61,39.94,45.01,72.32,38.88,6.3-1.2,13.49-7.64,19.65,1,.49.68,2.6.26,3.96.26,10.1.02,20.2-.28,30.28.12,5.43.22,6.99-1.6,6.91-6.92-.27-19.09-.1-38.18-.1-57.26ZM-213.16,218.3c-11.64.24-23.01-11.15-23.06-23.08-.04-11.84,11.28-23.07,23.12-22.92,12.13.15,23.16,11.12,23.11,22.97-.06,11.91-11,22.79-23.17,23.03Z"
           id="path92" />
        <path
           class="cls-8"
           d="M-495.45,183.42c-6.6-32.47-31.75-53-65.01-53.07-13.3-.03-18.2-2.91-22.25-14.65-1.24-3.61-3.05-3.76-5.87-3.75-10.1.04-20.22.32-30.3-.11-5.65-.24-6.82,2-6.75,7.12.24,19.09.09,38.2.09,57.3s.2,38.2-.13,57.3c-.09,5.2,1.56,7.34,6.62,7.64,7.82.46,14.85,3.48,21.23,7.8,13.36,9.06,27.94,12.38,44.03,11.14,37.99-2.93,65.93-39.4,58.34-76.72ZM-560.15,218.34c-12.15-.03-23.17-11.05-23.04-23.04.13-12.16,10.93-22.77,23.15-22.75,12.19.01,22.89,10.67,22.99,22.91.11,11.75-11.17,22.91-23.1,22.88Z"
           id="path94" />
        <path
           class="cls-8"
           d="M-419.15,130.35c-37.78-.06-65.86,27.72-65.88,65.17-1.54,28.12,20.37,64.78,65.22,65.13,38.1.3,65.59-28.46,65.85-65.73.25-35.98-29.12-64.51-65.19-64.57ZM-419.56,218.32c-12.05.11-23.18-10.84-23.2-22.81-.02-12.01,10.79-22.91,22.9-23.11,11.83-.19,23.28,11.01,23.33,22.82.06,11.91-10.99,22.99-23.03,23.1Z"
           id="path96" />
        <path
           class="cls-8"
           d="M-282.99,135.42c-10.85,1.78-14.98,12.47-15,23.55-.03,23.99-.2,47.99.13,71.98.09,5.92-1.17,8.16-7.54,7.78-9.78-.58-19.63-.33-29.45-.08-4.33.11-5.57-1.45-5.56-5.66.13-38.45.17-76.89-.04-115.33-.03-4.81,2.09-6.24,6.09-6.59,8.1-.71,15.07-4.09,21.69-8.62,10.8-7.39,22.64-11.57,35.93-11.47,3.95.03,5.25,1.29,5.07,5.16-.06,1.17-.09,2.34-.11,3.52-.02,1.01-.03,2.03-.03,3.05,0,.83,0,1.66,0,2.49.01,1.62.04,3.23.05,4.85h0c0,.82.02,1.63.02,2.44,0,1.02-.03,2.06-.03,3.08,0,.61.01,1.22.04,1.83.44,8.58,1.67,15.89-11.27,18.02Z"
           id="path98" />
      </g>
      <g
         class="cls-4"
         id="g108">
        <path
           class="cls-8"
           d="M-303.9,302.13c0-8.82-.07-17.63.05-26.45.03-2.39-.61-3.3-3.12-3.21-4.59.18-9.19.04-13.79.06-.95,0-2.13-.35-2.71.74-1.23,2.32-2.87,1.57-4.73.95-7.88-2.62-15.66-2.36-23.06,1.58-13.03,6.94-18.55,22.63-13.23,37.22,4.93,13.49,18.19,20.5,32.94,17.71,2.87-.55,6.14-3.48,8.95.46.22.31,1.18.12,1.8.12,4.6,0,9.2-.13,13.79.05,2.47.1,3.18-.73,3.15-3.15-.12-8.69-.05-17.39-.05-26.08ZM-335.33,312.45c-5.3.11-10.48-5.08-10.5-10.51-.02-5.39,5.14-10.51,10.53-10.44,5.52.07,10.55,5.06,10.52,10.46-.03,5.42-5.01,10.38-10.55,10.49Z"
           id="path102" />
        <path
           class="cls-8"
           d="M-433.13,272.57c-7.33-.56-13.97.95-20.05,5.07-2.91,1.97-6.11,3.34-9.67,3.55-2.3.14-3.06,1.11-3.01,3.48.15,8.7.06,17.4.06,26.1s.07,17.4-.04,26.1c-.03,2.33.5,3.35,3.07,3.24,4.59-.2,9.2-.07,13.8-.05,1.28,0,2.11-.06,2.67-1.71,1.84-5.35,4.08-6.66,10.13-6.67,15.15-.03,26.6-9.38,29.61-24.17,3.46-17-9.27-33.61-26.57-34.94ZM-425.51,302.03c-.05,5.57-4.92,10.43-10.47,10.43-5.57,0-10.48-4.82-10.54-10.36-.06-5.46,4.96-10.48,10.49-10.49,5.43-.01,10.57,5.07,10.52,10.42Z"
           id="path104" />
        <path
           class="cls-8"
           d="M-375.78,284.71c-4.94.81-6.82,5.68-6.83,10.73-.01,10.93-.09,21.86.06,32.78.04,2.7-.53,3.72-3.43,3.54-4.45-.26-8.94-.15-13.41-.04-1.97.05-2.54-.66-2.53-2.58.06-17.51.08-35.02-.02-52.52-.01-2.19.95-2.84,2.77-3,3.69-.32,6.86-1.86,9.88-3.93,4.92-3.37,10.31-5.27,16.36-5.22,1.8.01,2.39.59,2.31,2.35-.03.53-.04,1.07-.05,1.6,0,.46-.01.92-.01,1.39,0,.38,0,.76,0,1.13,0,.74.02,1.47.02,2.21h0c0,.37,0,.74,0,1.11,0,.46-.01.94-.01,1.4,0,.28,0,.56.02.83.2,3.91.76,7.24-5.13,8.21Z"
           id="path106" />
      </g>
      <g
         class="cls-4"
         id="g116">
        <path
           class="cls-8"
           d="M-205.04,425.63c0-19.36-.16-38.72.1-58.08.07-5.25-1.34-7.25-6.85-7.04-10.08.39-20.18.08-30.27.14-2.09.01-4.67-.77-5.94,1.63-2.69,5.09-6.3,3.45-10.38,2.09-17.31-5.76-34.38-5.19-50.64,3.46-28.62,15.23-40.73,49.69-29.04,81.72,10.82,29.61,39.94,45.01,72.32,38.88,6.3-1.2,13.49-7.64,19.65,1,.49.68,2.6.26,3.96.26,10.1.02,20.2-.28,30.28.12,5.43.22,6.99-1.6,6.91-6.92-.27-19.09-.1-38.18-.1-57.26ZM-274.06,448.31c-11.64.24-23.01-11.15-23.06-23.08-.04-11.84,11.28-23.07,23.12-22.92,12.13.15,23.16,11.12,23.11,22.97-.06,11.91-11,22.79-23.17,23.03Z"
           id="path110" />
        <path
           class="cls-8"
           d="M-507.32,384.56c-10.85,1.78-14.98,12.47-15,23.55-.03,23.99-.2,47.99.13,71.98.09,5.92-1.17,8.16-7.54,7.78-9.78-.58-19.63-.33-29.45-.08-4.33.11-5.57-1.45-5.56-5.66.13-38.45.17-76.89-.04-115.33-.03-4.81,2.09-6.24,6.09-6.59,8.1-.71,15.07-4.09,21.69-8.62,10.8-7.39,22.64-11.57,35.93-11.47,3.95.03,5.25,1.29,5.07,5.16-.06,1.17-.09,2.34-.11,3.52-.02,1.01-.03,2.03-.03,3.05,0,.83,0,1.66,0,2.49.01,1.62.04,3.23.05,4.85h0c0,.82.02,1.63.02,2.44,0,1.02-.03,2.06-.03,3.08,0,.61.01,1.22.04,1.83.44,8.58,1.67,15.89-11.27,18.02Z"
           id="path112" />
        <path
           class="cls-8"
           d="M-361.24,361.56l-31.46-.02c-2.63,0-4.79,2.11-5.07,4.8,0,0-.03,0-.04.02v59.29c0,.34,0,.67-.04,1.01-.61,11.39-10.58,21.55-21.63,21.78-10.56.23-20.88-10.37-21.53-21.78-.03-.36-.04-.7-.04-1.06v-61.61c-.17.05-.34.11-.51.17-.74-2.1-2.45-2.92-5.82-2.78l-31.06-.02c-2.6,0-4.73,2.11-5,4.8-.03.2-.04.41-.04.6v58.5c0,8.05,1.34,16.31,4.13,24.41,6.58,19.07,20.41,32.18,37.62,37.33,9.23,2.78,19.43,3.26,30.01,1.14,4.46-.9,9.41-4.78,14.05-2.88,1.48.6,2.94,1.8,4.33,3.87.05.07.1.12.18.17.12.09.29.14.49.17,0,0,0,0,.02,0,.5.09,1.17.04,1.83-.02.42-.03.83-.06,1.19-.06h.95c3.88,0,7.75-.05,11.62-.08h.29c2.28,0,4.56-.02,6.85,0h.03c1.9,0,3.8.04,5.7.1.95.03,1.91.06,2.87.1,5.08.22,6.54-1.58,6.46-6.85-.25-18.89-.09-37.78-.09-56.66s-.15-38.31.09-57.47c.07-5.19-1.25-7.17-6.41-6.97Z"
           id="path114" />
      </g>
      <path
         class="cls-1"
         d="M-384.84,392.71h-.04v-1.07c0,.36,0,.71.04,1.07Z"
         id="path118" />
      <path
         class="cls-1"
         d="M-384.84,391.69v1.02h-.04c.03-.34.04-.68.04-1.02Z"
         id="path120" />
      <path
         class="cls-7"
         d="M527.43,117.75c0-.97-.01-1.93-.02-2.9.01.97.01,1.93.01,2.9.01,1.23-.02,2.45-.02,3.68,0-1.22.04-2.46.04-3.68Z"
         id="path122" />
      <g
         id="g132">
        <path
           class="cls-8"
           d="M754.76,216.94c0-23.1-.19-46.2.12-69.3.08-6.26-1.6-8.65-8.17-8.4-12.03.47-24.08.1-36.12.17-2.49.01-5.57-.92-7.09,1.95-3.21,6.07-7.52,4.12-12.39,2.49-20.66-6.87-41.02-6.19-60.43,4.13-34.15,18.17-48.6,59.29-34.65,97.51,12.91,35.33,47.66,53.71,86.3,46.39,7.52-1.43,16.1-9.12,23.45,1.19.58.81,3.1.31,4.73.31,12.05.02,24.1-.33,36.13.14,6.48.26,8.34-1.91,8.25-8.26-.32-22.78-.12-45.56-.12-68.33ZM672.41,244.01c-13.89.29-27.46-13.3-27.52-27.54-.05-14.13,13.46-27.53,27.59-27.35,14.47.18,27.64,13.27,27.58,27.41-.07,14.21-13.13,27.19-27.65,27.48Z"
           id="path124" />
        <path
           class="cls-8"
           d="M335.56,202.38c-7.88-38.75-37.89-63.24-77.57-63.33-15.87-.04-21.72-3.47-26.55-17.48-1.48-4.31-3.64-4.49-7-4.47-12.05.05-24.13.38-36.16-.13-6.74-.29-8.14,2.39-8.05,8.5.29,22.78.11,45.58.11,68.37s.24,45.58-.16,68.37c-.11,6.2,1.86,8.76,7.9,9.12,9.33.55,17.72,4.15,25.33,9.31,15.94,10.81,33.34,14.77,52.54,13.29,45.33-3.5,78.67-47.01,69.62-91.55ZM258.36,244.05c-14.5-.04-27.65-13.19-27.49-27.49.16-14.51,13.04-27.17,27.62-27.15,14.55.01,27.31,12.73,27.43,27.34.13,14.02-13.33,27.34-27.56,27.3Z"
           id="path126" />
        <path
           class="cls-8"
           d="M426.61,139.06c-45.08-.07-78.59,33.08-78.61,77.76-1.84,33.55,24.31,77.3,77.82,77.72,45.46.36,78.27-33.96,78.58-78.43.3-42.93-34.75-76.98-77.79-77.05ZM426.12,244.03c-14.38.13-27.66-12.93-27.68-27.22-.02-14.33,12.88-27.34,27.33-27.58,14.12-.23,27.78,13.14,27.84,27.23.07,14.21-13.11,27.43-27.48,27.56Z"
           id="path128" />
        <path
           class="cls-8"
           d="M589.08,145.11c-12.95,2.12-17.88,14.88-17.9,28.1-.04,28.63-.24,57.26.16,85.89.11,7.06-1.4,9.74-9,9.28-11.67-.69-23.42-.39-35.14-.1-5.17.13-6.65-1.73-6.63-6.75.16-45.88.2-91.75-.05-137.62-.04-5.74,2.49-7.45,7.27-7.86,9.67-.85,17.98-4.88,25.88-10.29,12.89-8.82,27.02-13.81,42.87-13.69,4.71.04,6.26,1.54,6.05,6.16-.07,1.4-.11,2.79-.13,4.2-.02,1.21-.04,2.42-.04,3.64,0,.99.01,1.98.01,2.97.01,1.93.05,3.85.06,5.79h0c.01.98.02,1.95.02,2.91,0,1.22-.04,2.46-.04,3.68,0,.73.01,1.46.05,2.18.53,10.24,1.99,18.96-13.45,21.5Z"
           id="path130" />
      </g>
      <path
         class="cls-8"
         d="M754.76,386.98c0-23.1-.19-46.2.12-69.3.08-6.26-1.6-8.65-8.17-8.4-12.03.47-24.08.1-36.12.17-2.49.01-5.57-.92-7.09,1.95-3.21,6.07-7.52,4.12-12.39,2.49-20.66-6.87-41.02-6.19-60.43,4.13-34.15,18.17-48.6,59.29-34.65,97.51,12.91,35.33,47.66,53.71,86.3,46.39,7.52-1.43,16.1-9.12,23.45,1.19.58.81,3.1.31,4.73.31,12.05.02,24.1-.33,36.13.14,6.48.26,8.34-1.91,8.25-8.26-.32-22.78-.12-45.56-.12-68.33ZM672.41,414.04c-13.89.29-27.46-13.3-27.52-27.54-.05-14.13,13.46-27.53,27.59-27.35,14.47.18,27.64,13.27,27.58,27.41-.07,14.21-13.13,27.19-27.65,27.48Z"
         id="path134" />
      <path
         class="cls-8"
         d="M390.62,364.89c-12.95,2.12-17.88,14.88-17.9,28.1-.04,28.63-.24,57.26.16,85.89.11,7.06-1.4,9.74-9,9.28-11.67-.69-23.42-.39-35.14-.1-5.17.13-6.65-1.73-6.63-6.75.16-45.88.2-91.75-.05-137.62-.04-5.74,2.49-7.45,7.27-7.86,9.67-.85,17.98-4.88,25.88-10.29,12.89-8.82,27.02-13.81,42.87-13.69,4.71.04,6.26,1.54,6.05,6.16-.07,1.4-.11,2.79-.13,4.2-.02,1.21-.04,2.42-.04,3.64,0,.99.01,1.98.01,2.97.01,1.93.05,3.85.06,5.79h0c.01.98.02,1.95.02,2.91,0,1.22-.04,2.46-.04,3.68,0,.73.01,1.46.05,2.18.53,10.24,1.99,18.96-13.45,21.5Z"
         id="path136" />
      <path
         class="cls-8"
         d="M568.38,310.53l-37.54-.02c-3.14,0-5.71,2.51-6.05,5.73-.01.01-.03.01-.04.02v70.75c0,.4-.01.8-.04,1.2-.73,13.59-12.62,25.72-25.81,25.99-12.6.27-24.92-12.37-25.69-25.99-.03-.43-.04-.84-.04-1.26v-73.52c-.2.06-.4.13-.6.2-.88-2.5-2.92-3.48-6.94-3.32l-37.06-.02c-3.1,0-5.65,2.51-5.97,5.73-.03.24-.04.48-.04.72v69.8c0,9.61,1.6,19.46,4.93,29.13,7.86,22.75,24.36,38.4,44.89,44.55,11.01,3.32,23.19,3.88,35.81,1.36,5.32-1.07,11.23-5.7,16.76-3.44,1.76.72,3.5,2.15,5.17,4.62.06.08.12.14.21.2.15.11.35.17.58.2,0,0,.01-.01.02,0,.59.11,1.39.05,2.19-.02.5-.04.99-.07,1.42-.07h1.14c4.63,0,9.25-.06,13.87-.09h.35c2.72-.01,5.45-.02,8.17,0h.03c2.27.01,4.53.05,6.81.12,1.14.04,2.28.07,3.43.12,6.06.26,7.8-1.89,7.71-8.17-.3-22.54-.11-45.08-.11-67.61s-.18-45.72.11-68.57c.08-6.2-1.5-8.56-7.64-8.31Z"
         id="path138" />
      <path
         class="cls-6"
         d="M467.55,452.13h-.05v-1.28c0,.43.01.85.05,1.28Z"
         id="path140" />
      <path
         class="cls-6"
         d="M467.55,450.91v1.22h-.05c.04-.41.05-.81.05-1.22Z"
         id="path142" />
      <g
         id="g150">
        <path
           class="cls-8"
           d="M303.84,346.42c0-6.75-.06-13.49.03-20.24.02-1.83-.47-2.53-2.39-2.45-3.51.14-7.03.03-10.55.05-.73,0-1.63-.27-2.07.57-.94,1.77-2.2,1.2-3.62.73-6.03-2.01-11.98-1.81-17.65,1.21-9.97,5.31-14.19,17.32-10.12,28.48,3.77,10.32,13.92,15.68,25.2,13.55,2.2-.42,4.7-2.66,6.85.35.17.24.91.09,1.38.09,3.52,0,7.04-.1,10.55.04,1.89.08,2.44-.56,2.41-2.41-.09-6.65-.03-13.3-.03-19.95ZM279.79,354.33c-4.06.08-8.02-3.89-8.04-8.04-.01-4.13,3.93-8.04,8.06-7.99,4.23.05,8.07,3.88,8.05,8-.02,4.15-3.83,7.94-8.07,8.03Z"
           id="path144" />
        <path
           class="cls-8"
           d="M204.96,323.81c-5.61-.43-10.69.72-15.34,3.88-2.22,1.51-4.67,2.56-7.4,2.72-1.76.1-2.34.85-2.31,2.66.11,6.66.05,13.31.05,19.97s.05,13.32-.03,19.97c0,.19,0,.36.01.53,0,.09-.03.17-.03.26v15.96c0,1.36,1.1,2.47,2.47,2.47h9.87c1.36,0,2.47-1.1,2.47-2.47v-11.51c.01-.15.01-.33,0-.53v-1.61c.23-4.07,2.33-5.72,3.01-6.15,1.16-.68,2.7-.92,4.91-.92,11.59-.02,20.35-7.18,22.65-18.49,2.64-13-7.09-25.71-20.33-26.73ZM202.78,354.34c-4.26,0-8.02-3.69-8.07-7.93-.05-4.18,3.79-8.02,8.03-8.03,4.16-.01,8.09,3.88,8.05,7.97-.03,4.27-3.76,7.98-8.01,7.98Z"
           id="path146" />
        <path
           class="cls-8"
           d="M252.75,326.18c0-.36.01-.72.01-1.07,0-.28,0-.56,0-.85h0c0-.57-.01-1.13-.02-1.69,0-.29,0-.58,0-.87,0-.36,0-.71.01-1.06,0-.41.02-.82.04-1.23.06-1.35-.39-1.79-1.77-1.8-4.63-.03-8.76,1.42-12.52,4-2.31,1.58-4.74,2.76-7.56,3-1.39.12-2.13.62-2.12,2.3.07,13.4.06,26.79.01,40.19,0,1.47.43,2.01,1.94,1.97,3.42-.09,6.85-.17,10.26.03,2.22.13,2.66-.65,2.63-2.71-.11-8.36-.06-16.72-.05-25.08,0-3.86,1.45-7.59,5.23-8.21,4.51-.74,4.08-3.29,3.93-6.28-.01-.21-.01-.43-.01-.64Z"
           id="path148" />
      </g>
    </g>
  </g>
</svg>
