<svg xmlns="http://www.w3.org/2000/svg" xmlns:xlink="http://www.w3.org/1999/xlink" width="1920" zoomAndPan="magnify" viewBox="0 0 1440 809.999993" height="1080" preserveAspectRatio="xMidYMid meet" version="1.0"><defs><g/></defs><g fill="#f74200" fill-opacity="1"><g transform="translate(373.505407, 346.335195)"><g><path d="M 93.15625 1.21875 C 90.300781 1.21875 86.734375 1.164062 82.453125 1.0625 C 78.179688 0.96875 74.414062 0.613281 71.15625 0 C 69.53125 -0.40625 67.898438 -1.164062 66.265625 -2.28125 C 64.640625 -3.40625 63.421875 -4.578125 62.609375 -5.796875 C 54.867188 -19.234375 47.382812 -34.148438 40.15625 -50.546875 C 32.9375 -66.941406 26.375 -84.195312 20.46875 -102.3125 C 14.5625 -120.4375 9.367188 -138.5625 4.890625 -156.6875 C 4.273438 -158.925781 4.523438 -161.007812 5.640625 -162.9375 C 6.765625 -164.875 8.648438 -165.945312 11.296875 -166.15625 C 13.535156 -166.5625 16.4375 -166.863281 20 -167.0625 C 23.5625 -167.269531 26.363281 -167.375 28.40625 -167.375 C 30.03125 -167.375 33.179688 -167.269531 37.859375 -167.0625 C 42.546875 -166.863281 46.007812 -166.5625 48.25 -166.15625 C 52.125 -165.539062 54.46875 -163.195312 55.28125 -159.125 C 56.90625 -136.925781 60.972656 -116.304688 67.484375 -97.265625 C 74.003906 -78.234375 80.421875 -62.101562 86.734375 -48.875 C 88.773438 -45 90.863281 -43.0625 93 -43.0625 C 95.132812 -43.0625 97.222656 -45 99.265625 -48.875 C 103.535156 -57.832031 107.859375 -68.113281 112.234375 -79.71875 C 116.617188 -91.320312 120.488281 -103.84375 123.84375 -117.28125 C 127.207031 -130.71875 129.398438 -144.664062 130.421875 -159.125 C 131.234375 -163.195312 133.570312 -165.539062 137.4375 -166.15625 C 139.882812 -166.5625 143.347656 -166.863281 147.828125 -167.0625 C 152.304688 -167.269531 155.460938 -167.375 157.296875 -167.375 C 159.734375 -167.375 162.679688 -167.269531 166.140625 -167.0625 C 169.609375 -166.863281 172.359375 -166.5625 174.390625 -166.15625 C 177.242188 -165.945312 179.175781 -164.875 180.1875 -162.9375 C 181.207031 -161.007812 181.414062 -158.925781 180.8125 -156.6875 C 173.28125 -128.988281 164.625 -102.003906 154.84375 -75.734375 C 145.070312 -49.472656 134.382812 -26.160156 122.78125 -5.796875 C 121.96875 -4.578125 120.796875 -3.40625 119.265625 -2.28125 C 117.734375 -1.164062 116.15625 -0.40625 114.53125 0 C 111.269531 0.613281 107.5 0.96875 103.21875 1.0625 C 98.945312 1.164062 95.59375 1.21875 93.15625 1.21875 Z M 93.15625 1.21875 "/></g></g></g><g fill="#f74200" fill-opacity="1"><g transform="translate(559.197509, 346.335195)"><g><path d="M 91.015625 2.4375 C 74.722656 2.4375 60.113281 -0.664062 47.1875 -6.875 C 34.257812 -13.082031 24.078125 -22.445312 16.640625 -34.96875 C 9.210938 -47.488281 5.5 -63.117188 5.5 -81.859375 C 5.5 -100.179688 9.160156 -115.804688 16.484375 -128.734375 C 23.816406 -141.660156 33.945312 -151.535156 46.875 -158.359375 C 59.8125 -165.179688 74.523438 -168.59375 91.015625 -168.59375 C 107.503906 -168.59375 122.113281 -165.179688 134.84375 -158.359375 C 147.570312 -151.535156 157.597656 -141.660156 164.921875 -128.734375 C 172.253906 -115.804688 175.921875 -100.179688 175.921875 -81.859375 C 175.921875 -63.117188 172.253906 -47.488281 164.921875 -34.96875 C 157.597656 -22.445312 147.519531 -13.082031 134.6875 -6.875 C 121.863281 -0.664062 107.304688 2.4375 91.015625 2.4375 Z M 91.015625 -33.59375 C 103.023438 -33.59375 112.945312 -37.867188 120.78125 -46.421875 C 128.625 -54.972656 132.546875 -67.289062 132.546875 -83.375 C 132.546875 -98.644531 128.675781 -110.65625 120.9375 -119.40625 C 113.207031 -128.164062 103.234375 -132.546875 91.015625 -132.546875 C 78.597656 -132.546875 68.570312 -128.164062 60.9375 -119.40625 C 53.300781 -110.65625 49.484375 -98.644531 49.484375 -83.375 C 49.484375 -67.289062 53.398438 -54.972656 61.234375 -46.421875 C 69.078125 -37.867188 79.003906 -33.59375 91.015625 -33.59375 Z M 91.015625 -33.59375 "/></g></g></g><g fill="#f74200" fill-opacity="1"><g transform="translate(740.613741, 346.335195)"><g><path d="M 91.015625 2.4375 C 73.910156 2.4375 58.941406 -0.921875 46.109375 -7.640625 C 33.285156 -14.359375 23.3125 -24.03125 16.1875 -36.65625 C 9.0625 -49.28125 5.5 -64.550781 5.5 -82.46875 C 5.5 -100.382812 9.0625 -115.753906 16.1875 -128.578125 C 23.3125 -141.410156 33.285156 -151.285156 46.109375 -158.203125 C 58.941406 -165.128906 73.707031 -168.59375 90.40625 -168.59375 C 99.15625 -168.59375 108.363281 -167.878906 118.03125 -166.453125 C 127.707031 -165.023438 135.398438 -163.191406 141.109375 -160.953125 C 143.140625 -160.140625 144.867188 -158.765625 146.296875 -156.828125 C 147.722656 -154.898438 148.332031 -152.914062 148.125 -150.875 C 147.925781 -146.394531 147.671875 -141.710938 147.359375 -136.828125 C 147.054688 -131.941406 146.703125 -127.15625 146.296875 -122.46875 C 145.890625 -117.988281 144.410156 -115.289062 141.859375 -114.375 C 139.316406 -113.457031 136.625 -114.628906 133.78125 -117.890625 C 129.300781 -121.765625 123.289062 -124.867188 115.75 -127.203125 C 108.21875 -129.546875 101.5 -130.71875 95.59375 -130.71875 C 81.957031 -130.71875 71.21875 -126.59375 63.375 -118.34375 C 55.53125 -110.101562 51.609375 -98.144531 51.609375 -82.46875 C 51.609375 -67.601562 55.9375 -56.097656 64.59375 -47.953125 C 73.25 -39.804688 84.398438 -35.734375 98.046875 -35.734375 C 104.765625 -35.734375 111.785156 -37.15625 119.109375 -40 C 126.441406 -42.851562 132.65625 -46.828125 137.75 -51.921875 C 139.988281 -54.972656 142.582031 -55.988281 145.53125 -54.96875 C 148.488281 -53.957031 150.066406 -51.414062 150.265625 -47.34375 C 150.671875 -42.65625 151.128906 -37.613281 151.640625 -32.21875 C 152.148438 -26.820312 152.503906 -21.582031 152.703125 -16.5 C 153.117188 -14.050781 152.710938 -11.859375 151.484375 -9.921875 C 150.265625 -7.992188 148.84375 -6.617188 147.21875 -5.796875 C 142.53125 -4.171875 136.878906 -2.695312 130.265625 -1.375 C 123.648438 -0.0507812 116.878906 0.910156 109.953125 1.515625 C 103.023438 2.128906 96.710938 2.4375 91.015625 2.4375 Z M 91.015625 2.4375 "/></g></g></g><g fill="#f74200" fill-opacity="1"><g transform="translate(899.734763, 346.335195)"><g><path d="M 58.03125 -175.3125 L 42.765625 -175.3125 C 39.703125 -175.3125 37.710938 -176.226562 36.796875 -178.0625 C 35.878906 -179.894531 36.441406 -181.929688 38.484375 -184.171875 L 61.390625 -214.71875 C 63.628906 -217.769531 66.582031 -219.296875 70.25 -219.296875 L 100.484375 -219.296875 C 104.347656 -219.296875 107.398438 -217.867188 109.640625 -215.015625 L 132.546875 -184.171875 C 134.585938 -181.929688 135.148438 -179.894531 134.234375 -178.0625 C 133.316406 -176.226562 131.332031 -175.3125 128.28125 -175.3125 L 113.3125 -175.3125 C 109.445312 -175.3125 106.492188 -176.632812 104.453125 -179.28125 L 90.703125 -196.078125 C 89.285156 -198.117188 87.609375 -199.140625 85.671875 -199.140625 C 83.734375 -199.140625 81.953125 -198.117188 80.328125 -196.078125 L 67.1875 -179.59375 C 64.539062 -176.738281 61.488281 -175.3125 58.03125 -175.3125 Z M 94.375 2.4375 C 76.457031 2.4375 60.828125 -0.96875 47.484375 -7.78125 C 34.148438 -14.601562 23.816406 -24.53125 16.484375 -37.5625 C 9.160156 -50.59375 5.5 -66.375 5.5 -84.90625 C 5.5 -102.820312 9.007812 -117.988281 16.03125 -130.40625 C 23.0625 -142.832031 32.679688 -152.300781 44.890625 -158.8125 C 57.109375 -165.332031 70.957031 -168.59375 86.4375 -168.59375 C 108.019531 -168.59375 125.476562 -163.753906 138.8125 -154.078125 C 152.144531 -144.410156 158.8125 -130.210938 158.8125 -111.484375 C 158.8125 -101.503906 156.113281 -92.695312 150.71875 -85.0625 C 145.320312 -77.425781 138.195312 -71.519531 129.34375 -67.34375 C 120.488281 -63.164062 110.972656 -61.078125 100.796875 -61.078125 C 92.441406 -61.078125 84.34375 -61.789062 76.5 -63.21875 C 68.664062 -64.644531 61.796875 -66.988281 55.890625 -70.25 C 52.835938 -72.28125 50.597656 -72.429688 49.171875 -70.703125 C 47.742188 -68.972656 48.050781 -66.679688 50.09375 -63.828125 C 52.53125 -58.128906 56.445312 -53.039062 61.84375 -48.5625 C 67.238281 -44.082031 73.394531 -40.566406 80.3125 -38.015625 C 87.238281 -35.472656 94.164062 -34.203125 101.09375 -34.203125 C 109.03125 -34.203125 117.476562 -35.929688 126.4375 -39.390625 C 135.40625 -42.859375 142.738281 -47.238281 148.4375 -52.53125 C 150.675781 -55.382812 153.066406 -56.351562 155.609375 -55.4375 C 158.160156 -54.519531 159.535156 -52.023438 159.734375 -47.953125 C 160.140625 -43.472656 160.394531 -38.890625 160.5 -34.203125 C 160.601562 -29.523438 160.753906 -24.945312 160.953125 -20.46875 C 160.953125 -16.59375 159.628906 -13.84375 156.984375 -12.21875 C 149.453125 -7.125 139.832031 -3.40625 128.125 -1.0625 C 116.414062 1.269531 105.164062 2.4375 94.375 2.4375 Z M 88.875 -84.609375 C 97.632812 -84.609375 104.554688 -86.796875 109.640625 -91.171875 C 114.734375 -95.546875 117.28125 -101.5 117.28125 -109.03125 C 117.28125 -116.976562 114.9375 -123.191406 110.25 -127.671875 C 105.570312 -132.148438 97.835938 -134.390625 87.046875 -134.390625 C 80.929688 -134.390625 74.921875 -133.113281 69.015625 -130.5625 C 63.117188 -128.019531 58.285156 -124.40625 54.515625 -119.71875 C 50.753906 -115.039062 48.875 -109.34375 48.875 -102.625 C 48.875 -98.550781 51.113281 -95.140625 55.59375 -92.390625 C 60.070312 -89.640625 65.414062 -87.65625 71.625 -86.4375 C 77.832031 -85.21875 83.582031 -84.609375 88.875 -84.609375 Z M 88.875 -84.609375 "/></g></g></g><g fill="#00bf63" fill-opacity="1"><g transform="translate(226.980463, 555.837414)"><g><path d="M 82.109375 1.953125 C 75.078125 1.953125 67.148438 1.421875 58.328125 0.359375 C 49.503906 -0.691406 40.800781 -2.195312 32.21875 -4.15625 C 23.644531 -6.125 16.007812 -8.25 9.3125 -10.53125 C 6.53125 -11.519531 5.140625 -13.972656 5.140625 -17.890625 C 5.140625 -23.285156 5.179688 -28.632812 5.265625 -33.9375 C 5.347656 -39.25 5.472656 -44.601562 5.640625 -50 C 5.640625 -53.425781 6.78125 -55.546875 9.0625 -56.359375 C 11.351562 -57.179688 13.398438 -56.453125 15.203125 -54.171875 C 23.367188 -45.347656 33.210938 -38.972656 44.734375 -35.046875 C 56.253906 -31.128906 68.300781 -29.171875 80.875 -29.171875 C 91.664062 -29.171875 100.285156 -30.757812 106.734375 -33.9375 C 113.191406 -37.125 116.421875 -41.820312 116.421875 -48.03125 C 116.421875 -52.769531 114.5 -56.773438 110.65625 -60.046875 C 106.820312 -63.316406 101.71875 -66.21875 95.34375 -68.75 C 88.96875 -71.28125 81.976562 -73.6875 74.375 -75.96875 C 66.78125 -78.257812 59.222656 -80.753906 51.703125 -83.453125 C 44.191406 -86.148438 37.25 -89.457031 30.875 -93.375 C 24.507812 -97.300781 19.40625 -102.082031 15.5625 -107.71875 C 11.71875 -113.351562 9.796875 -120.175781 9.796875 -128.1875 C 9.796875 -138.476562 12.984375 -146.972656 19.359375 -153.671875 C 25.734375 -160.367188 34.394531 -165.351562 45.34375 -168.625 C 56.289062 -171.894531 68.546875 -173.53125 82.109375 -173.53125 C 91.421875 -173.53125 101.140625 -172.628906 111.265625 -170.828125 C 121.398438 -169.035156 130.390625 -166.421875 138.234375 -162.984375 C 141.171875 -161.347656 142.640625 -158.976562 142.640625 -155.875 L 142.640625 -128.421875 C 142.640625 -125.316406 141.535156 -123.234375 139.328125 -122.171875 C 137.128906 -121.117188 135.128906 -121.648438 133.328125 -123.765625 C 126.460938 -129.984375 118.703125 -134.679688 110.046875 -137.859375 C 101.390625 -141.046875 92.648438 -142.640625 83.828125 -142.640625 C 77.773438 -142.640625 72.007812 -142.023438 66.53125 -140.796875 C 61.0625 -139.578125 56.609375 -137.738281 53.171875 -135.28125 C 49.742188 -132.832031 48.03125 -129.648438 48.03125 -125.734375 C 48.03125 -121.316406 49.988281 -117.554688 53.90625 -114.453125 C 57.832031 -111.347656 62.984375 -108.570312 69.359375 -106.125 C 75.734375 -103.675781 82.757812 -101.222656 90.4375 -98.765625 C 98.113281 -96.316406 105.75 -93.660156 113.34375 -90.796875 C 120.945312 -87.941406 127.9375 -84.515625 134.3125 -80.515625 C 140.6875 -76.515625 145.832031 -71.734375 149.75 -66.171875 C 153.675781 -60.617188 155.640625 -53.921875 155.640625 -46.078125 C 155.640625 -31.046875 149.101562 -19.28125 136.03125 -10.78125 C 122.957031 -2.289062 104.984375 1.953125 82.109375 1.953125 Z M 82.109375 1.953125 "/></g></g></g><g fill="#00bf63" fill-opacity="1"><g transform="translate(387.520647, 555.837414)"><g><path d="M 77.203125 0.984375 C 72.796875 0.984375 67.523438 0.984375 61.390625 0.984375 C 55.265625 0.984375 48.972656 0.941406 42.515625 0.859375 C 36.066406 0.773438 30.226562 0.648438 25 0.484375 C 19.769531 0.328125 15.929688 0.164062 13.484375 0 C 9.066406 -0.320312 6.859375 -2.363281 6.859375 -6.125 C 6.859375 -18.382812 6.976562 -31.539062 7.21875 -45.59375 C 7.46875 -59.644531 7.796875 -73.859375 8.203125 -88.234375 C 8.617188 -102.609375 9.148438 -116.453125 9.796875 -129.765625 C 10.453125 -143.085938 11.109375 -155.140625 11.765625 -165.921875 C 11.929688 -167.722656 12.664062 -169.070312 13.96875 -169.96875 C 15.28125 -170.875 16.75 -171.40625 18.375 -171.5625 C 20.34375 -171.726562 23.691406 -171.890625 28.421875 -172.046875 C 33.160156 -172.210938 38.515625 -172.335938 44.484375 -172.421875 C 50.453125 -172.503906 56.375 -172.546875 62.25 -172.546875 C 68.132812 -172.546875 73.117188 -172.546875 77.203125 -172.546875 C 83.410156 -172.546875 90.023438 -172.546875 97.046875 -172.546875 C 104.078125 -172.546875 110.941406 -172.460938 117.640625 -172.296875 C 124.335938 -172.140625 130.222656 -171.894531 135.296875 -171.5625 C 139.046875 -171.238281 141.171875 -169.28125 141.671875 -165.6875 C 141.828125 -163.726562 142.023438 -160.867188 142.265625 -157.109375 C 142.515625 -153.347656 142.722656 -149.382812 142.890625 -145.21875 C 143.054688 -141.050781 143.21875 -137.171875 143.375 -133.578125 C 143.539062 -129.984375 143.625 -127.207031 143.625 -125.25 C 143.789062 -121.976562 142.644531 -120.054688 140.1875 -119.484375 C 137.738281 -118.910156 135.617188 -120.09375 133.828125 -123.03125 C 129.410156 -129.894531 122.867188 -135.039062 114.203125 -138.46875 C 105.546875 -141.90625 94.03125 -143.625 79.65625 -143.625 C 69.195312 -143.625 60.375 -142.113281 53.1875 -139.09375 C 46 -136.070312 42.40625 -130.960938 42.40625 -123.765625 L 42.40625 -121.5625 C 42.40625 -116.5 44.851562 -112.492188 49.75 -109.546875 C 54.65625 -106.609375 61.765625 -105.140625 71.078125 -105.140625 C 77.453125 -105.140625 84.597656 -105.34375 92.515625 -105.75 C 100.441406 -106.164062 107.347656 -106.695312 113.234375 -107.34375 C 115.023438 -107.675781 116.613281 -107.226562 118 -106 C 119.394531 -104.78125 120.09375 -103.269531 120.09375 -101.46875 L 120.09375 -78.921875 C 120.09375 -76.304688 119.191406 -74.710938 117.390625 -74.140625 C 115.597656 -73.566406 113.640625 -74.179688 111.515625 -75.984375 C 107.109375 -79.085938 101.269531 -81.207031 94 -82.34375 C 86.726562 -83.488281 79.738281 -83.984375 73.03125 -83.828125 C 67.644531 -83.828125 62.582031 -83.171875 57.84375 -81.859375 C 53.101562 -80.554688 49.300781 -78.351562 46.4375 -75.25 C 43.582031 -72.144531 42.15625 -67.976562 42.15625 -62.75 L 42.15625 -56.125 C 42.15625 -49.425781 44.238281 -44.070312 48.40625 -40.0625 C 52.570312 -36.0625 58.003906 -33.203125 64.703125 -31.484375 C 71.398438 -29.773438 78.507812 -28.921875 86.03125 -28.921875 C 96.8125 -28.921875 105.632812 -29.859375 112.5 -31.734375 C 119.363281 -33.617188 125 -36.601562 129.40625 -40.6875 C 133.820312 -44.769531 137.828125 -50.078125 141.421875 -56.609375 C 142.722656 -59.390625 144.679688 -60.65625 147.296875 -60.40625 C 149.910156 -60.164062 151.382812 -58.410156 151.71875 -55.140625 C 152.039062 -52.859375 152.363281 -49.425781 152.6875 -44.84375 C 153.019531 -40.269531 153.304688 -35.367188 153.546875 -30.140625 C 153.796875 -24.910156 154.039062 -20.007812 154.28125 -15.4375 C 154.53125 -10.863281 154.738281 -7.429688 154.90625 -5.140625 C 154.90625 -2.035156 153.1875 -0.320312 149.75 0 C 145.5 0.164062 140.269531 0.328125 134.0625 0.484375 C 127.851562 0.648438 121.273438 0.773438 114.328125 0.859375 C 107.390625 0.941406 100.648438 0.984375 94.109375 0.984375 C 87.578125 0.984375 81.941406 0.984375 77.203125 0.984375 Z M 77.203125 0.984375 "/></g></g></g><g fill="#00bf63" fill-opacity="1"><g transform="translate(547.815747, 555.837414)"><g><path d="M 72.546875 1.71875 C 64.046875 1.71875 55.75 0.164062 47.65625 -2.9375 C 39.570312 -6.039062 32.265625 -10.898438 25.734375 -17.515625 C 19.203125 -24.140625 14.054688 -32.554688 10.296875 -42.765625 C 6.535156 -52.984375 4.65625 -65.195312 4.65625 -79.40625 C 4.65625 -98.6875 8.25 -115.3125 15.4375 -129.28125 C 22.625 -143.257812 32.585938 -154.128906 45.328125 -161.890625 C 58.078125 -169.648438 72.707031 -173.53125 89.21875 -173.53125 C 99.1875 -173.53125 109.316406 -172.300781 119.609375 -169.84375 C 129.898438 -167.394531 138.554688 -164.457031 145.578125 -161.03125 C 148.847656 -158.738281 150.320312 -155.304688 150 -150.734375 C 149.832031 -148.441406 149.503906 -145.332031 149.015625 -141.40625 C 148.523438 -137.488281 148.035156 -133.566406 147.546875 -129.640625 C 147.054688 -125.722656 146.648438 -122.378906 146.328125 -119.609375 C 146.160156 -116.660156 145.015625 -115.023438 142.890625 -114.703125 C 140.765625 -114.378906 138.800781 -115.441406 137 -117.890625 C 131.613281 -124.585938 125.285156 -130.140625 118.015625 -134.546875 C 110.742188 -138.960938 100.976562 -141.171875 88.71875 -141.171875 C 80.550781 -141.171875 72.953125 -138.882812 65.921875 -134.3125 C 58.898438 -129.738281 53.304688 -122.957031 49.140625 -113.96875 C 44.972656 -104.976562 42.890625 -93.867188 42.890625 -80.640625 C 42.890625 -68.378906 44.804688 -58.570312 48.640625 -51.21875 C 52.484375 -43.875 57.628906 -38.644531 64.078125 -35.53125 C 70.535156 -32.425781 77.609375 -30.875 85.296875 -30.875 C 93.140625 -30.875 99.878906 -32.550781 105.515625 -35.90625 C 111.148438 -39.257812 115.476562 -43.710938 118.5 -49.265625 C 121.519531 -54.816406 123.03125 -60.863281 123.03125 -67.40625 C 123.03125 -73.28125 122.414062 -77.890625 121.1875 -81.234375 C 119.96875 -84.585938 118.210938 -87.984375 115.921875 -91.421875 C 114.617188 -93.054688 114.332031 -94.8125 115.0625 -96.6875 C 115.800781 -98.570312 117.394531 -99.515625 119.84375 -99.515625 C 131.9375 -99.671875 144.03125 -99.671875 156.125 -99.515625 C 159.882812 -99.515625 161.925781 -97.550781 162.25 -93.625 C 163.5625 -79.570312 164.664062 -65.4375 165.5625 -51.21875 C 166.457031 -37.007812 166.820312 -22.144531 166.65625 -6.625 C 166.65625 -2.53125 164.695312 -0.238281 160.78125 0.25 C 156.695312 0.40625 152.203125 0.484375 147.296875 0.484375 C 142.398438 0.484375 136.925781 0.320312 130.875 0 C 129.238281 -0.164062 127.847656 -0.816406 126.703125 -1.953125 C 125.566406 -3.097656 125.082031 -4.65625 125.25 -6.625 C 125.570312 -8.414062 125.894531 -10.492188 126.21875 -12.859375 C 126.550781 -15.234375 126.796875 -17.566406 126.953125 -19.859375 C 127.285156 -22.628906 126.675781 -24.132812 125.125 -24.375 C 123.570312 -24.625 122.222656 -23.609375 121.078125 -21.328125 C 115.679688 -12.992188 109.101562 -7.066406 101.34375 -3.546875 C 93.582031 -0.0351562 83.984375 1.71875 72.546875 1.71875 Z M 72.546875 1.71875 "/></g></g></g><g fill="#00bf63" fill-opacity="1"><g transform="translate(720.365815, 555.837414)"><g><path d="M 78.671875 1.953125 C 54.816406 1.953125 36.597656 -3.679688 24.015625 -14.953125 C 11.429688 -26.222656 5.222656 -42.890625 5.390625 -64.953125 C 5.390625 -76.222656 5.59375 -88.023438 6 -100.359375 C 6.414062 -112.703125 6.988281 -124.550781 7.71875 -135.90625 C 8.457031 -147.257812 9.148438 -157.101562 9.796875 -165.4375 C 10.285156 -168.707031 12.25 -170.75 15.6875 -171.5625 C 17.476562 -171.894531 19.84375 -172.140625 22.78125 -172.296875 C 25.726562 -172.460938 28.101562 -172.546875 29.90625 -172.546875 C 31.539062 -172.546875 33.988281 -172.460938 37.25 -172.296875 C 40.519531 -172.140625 42.972656 -171.894531 44.609375 -171.5625 C 46.078125 -171.40625 47.460938 -170.710938 48.765625 -169.484375 C 50.078125 -168.253906 50.570312 -166.5 50.25 -164.21875 C 48.769531 -155.394531 47.5 -145.628906 46.4375 -134.921875 C 45.382812 -124.222656 44.648438 -113.316406 44.234375 -102.203125 C 43.828125 -91.085938 43.707031 -80.382812 43.875 -70.09375 C 44.195312 -57.351562 47.257812 -47.304688 53.0625 -39.953125 C 58.863281 -32.597656 67.398438 -28.921875 78.671875 -28.921875 C 90.109375 -28.921875 98.726562 -32.71875 104.53125 -40.3125 C 110.332031 -47.914062 113.316406 -57.84375 113.484375 -70.09375 C 113.804688 -80.382812 113.679688 -91.046875 113.109375 -102.078125 C 112.535156 -113.109375 111.757812 -123.929688 110.78125 -134.546875 C 109.800781 -145.171875 108.578125 -155.0625 107.109375 -164.21875 C 106.773438 -166.5 107.222656 -168.253906 108.453125 -169.484375 C 109.679688 -170.710938 111.03125 -171.40625 112.5 -171.5625 C 114.289062 -171.894531 116.820312 -172.140625 120.09375 -172.296875 C 123.363281 -172.460938 125.816406 -172.546875 127.453125 -172.546875 C 129.085938 -172.546875 131.414062 -172.460938 134.4375 -172.296875 C 137.457031 -172.140625 139.867188 -171.894531 141.671875 -171.5625 C 145.097656 -170.75 147.054688 -168.707031 147.546875 -165.4375 C 148.523438 -157.101562 149.34375 -147.257812 150 -135.90625 C 150.65625 -124.550781 151.144531 -112.703125 151.46875 -100.359375 C 151.789062 -88.023438 151.953125 -76.222656 151.953125 -64.953125 C 151.953125 -42.890625 145.703125 -26.222656 133.203125 -14.953125 C 120.703125 -3.679688 102.523438 1.953125 78.671875 1.953125 Z M 78.671875 1.953125 "/></g></g></g><g fill="#00bf63" fill-opacity="1"><g transform="translate(877.4746, 555.837414)"><g><path d="M 29.65625 0.984375 C 26.0625 0.984375 22.710938 0.898438 19.609375 0.734375 C 16.503906 0.566406 14.296875 0.320312 12.984375 0 C 8.898438 -0.8125 6.859375 -2.9375 6.859375 -6.375 C 6.859375 -13.726562 6.976562 -22.914062 7.21875 -33.9375 C 7.46875 -44.96875 7.796875 -56.851562 8.203125 -69.59375 C 8.617188 -82.34375 9.03125 -94.96875 9.4375 -107.46875 C 9.84375 -119.96875 10.25 -131.40625 10.65625 -141.78125 C 11.070312 -152.15625 11.359375 -160.367188 11.515625 -166.421875 C 11.515625 -168.054688 12.085938 -169.40625 13.234375 -170.46875 C 14.378906 -171.53125 15.769531 -172.140625 17.40625 -172.296875 C 18.550781 -172.460938 21.488281 -172.585938 26.21875 -172.671875 C 30.957031 -172.753906 36.472656 -172.875 42.765625 -173.03125 C 49.054688 -173.195312 55.304688 -173.320312 61.515625 -173.40625 C 67.722656 -173.488281 72.867188 -173.53125 76.953125 -173.53125 C 101.140625 -173.53125 119.6875 -170.257812 132.59375 -163.71875 C 145.5 -157.1875 151.953125 -146.894531 151.953125 -132.84375 C 151.953125 -122.382812 147.988281 -112.660156 140.0625 -103.671875 C 132.144531 -94.679688 120.425781 -88.554688 104.90625 -85.296875 C 102.78125 -84.960938 101.675781 -84.101562 101.59375 -82.71875 C 101.507812 -81.332031 102.53125 -80.3125 104.65625 -79.65625 C 122.132812 -75.40625 134.710938 -67.234375 142.390625 -55.140625 C 150.078125 -43.054688 153.921875 -26.882812 153.921875 -6.625 C 153.921875 -4.65625 153.304688 -3.140625 152.078125 -2.078125 C 150.859375 -1.015625 149.347656 -0.320312 147.546875 0 C 144.929688 0.320312 142.273438 0.566406 139.578125 0.734375 C 136.878906 0.898438 134.71875 0.984375 133.09375 0.984375 C 131.125 0.984375 128.503906 0.898438 125.234375 0.734375 C 121.972656 0.566406 119.035156 0.320312 116.421875 0 C 114.617188 -0.320312 113.0625 -1.015625 111.75 -2.078125 C 110.445312 -3.140625 109.796875 -4.65625 109.796875 -6.625 C 109.640625 -15.28125 108.171875 -23.53125 105.390625 -31.375 C 102.609375 -39.21875 98.847656 -46.203125 94.109375 -52.328125 C 89.378906 -58.453125 83.90625 -63.3125 77.6875 -66.90625 C 71.476562 -70.5 64.945312 -72.296875 58.09375 -72.296875 C 54.488281 -72.296875 51.625 -71.109375 49.5 -68.734375 C 47.382812 -66.367188 46.328125 -63.226562 46.328125 -59.3125 C 46.328125 -49.832031 47.0625 -40.4375 48.53125 -31.125 C 50 -21.8125 51.0625 -13.722656 51.71875 -6.859375 C 52.039062 -5.066406 51.546875 -3.554688 50.234375 -2.328125 C 48.929688 -1.097656 47.382812 -0.320312 45.59375 0 C 43.132812 0.320312 40.554688 0.566406 37.859375 0.734375 C 35.171875 0.898438 32.4375 0.984375 29.65625 0.984375 Z M 58.328125 -98.765625 C 76.460938 -100.566406 90.429688 -103.753906 100.234375 -108.328125 C 110.046875 -112.898438 114.953125 -118.539062 114.953125 -125.25 C 114.953125 -131.457031 111.679688 -135.988281 105.140625 -138.84375 C 98.609375 -141.707031 88.476562 -143.140625 74.75 -143.140625 C 70.832031 -143.140625 67.359375 -143.140625 64.328125 -143.140625 C 61.304688 -143.140625 58.242188 -142.972656 55.140625 -142.640625 C 49.265625 -142.148438 46.082031 -139.210938 45.59375 -133.828125 C 45.425781 -130.222656 45.257812 -125.847656 45.09375 -120.703125 C 44.9375 -115.554688 45.101562 -110.859375 45.59375 -106.609375 C 45.914062 -103.015625 47.21875 -100.644531 49.5 -99.5 C 51.789062 -98.363281 54.734375 -98.117188 58.328125 -98.765625 Z M 58.328125 -98.765625 "/></g></g></g><g fill="#00bf63" fill-opacity="1"><g transform="translate(1037.7697, 555.837414)"><g><path d="M 87.5 1.953125 C 71.320312 1.953125 56.984375 -0.78125 44.484375 -6.25 C 31.984375 -11.71875 22.21875 -20.414062 15.1875 -32.34375 C 8.164062 -44.28125 4.65625 -59.890625 4.65625 -79.171875 C 4.65625 -98.453125 8.125 -115.117188 15.0625 -129.171875 C 22.007812 -143.222656 31.734375 -154.128906 44.234375 -161.890625 C 56.734375 -169.648438 71.15625 -173.53125 87.5 -173.53125 C 104 -173.53125 118.5 -169.648438 131 -161.890625 C 143.5 -154.128906 153.21875 -143.222656 160.15625 -129.171875 C 167.101562 -115.117188 170.578125 -98.453125 170.578125 -79.171875 C 170.578125 -59.890625 167.0625 -44.28125 160.03125 -32.34375 C 153.007812 -20.414062 143.25 -11.71875 130.75 -6.25 C 118.257812 -0.78125 103.84375 1.953125 87.5 1.953125 Z M 87.75 -30.390625 C 96.082031 -30.390625 103.597656 -32.023438 110.296875 -35.296875 C 116.992188 -38.566406 122.300781 -43.914062 126.21875 -51.34375 C 130.144531 -58.78125 132.109375 -68.707031 132.109375 -81.125 C 132.109375 -93.21875 130.1875 -103.753906 126.34375 -112.734375 C 122.507812 -121.722656 117.28125 -128.707031 110.65625 -133.6875 C 104.039062 -138.675781 96.40625 -141.171875 87.75 -141.171875 C 79.082031 -141.171875 71.398438 -138.675781 64.703125 -133.6875 C 58.003906 -128.707031 52.773438 -121.722656 49.015625 -112.734375 C 45.253906 -103.753906 43.375 -93.21875 43.375 -81.125 C 43.375 -68.707031 45.332031 -58.78125 49.25 -51.34375 C 53.175781 -43.914062 58.488281 -38.566406 65.1875 -35.296875 C 71.894531 -32.023438 79.414062 -30.390625 87.75 -30.390625 Z M 87.75 -30.390625 "/></g></g></g><g fill="#f74200" fill-opacity="1"><g transform="translate(377.783658, 690.323597)"><g><path d="M 17.1875 0.65625 C 15.769531 0.65625 14.1875 0.597656 12.4375 0.484375 C 10.695312 0.378906 9.171875 0.21875 7.859375 0 C 6.878906 -0.21875 6.003906 -0.707031 5.234375 -1.46875 C 4.472656 -2.238281 4.144531 -3.332031 4.25 -4.75 C 4.25 -14.675781 4.273438 -23.296875 4.328125 -30.609375 C 4.390625 -37.929688 4.53125 -44.535156 4.75 -50.421875 C 4.96875 -56.316406 5.238281 -61.992188 5.5625 -67.453125 C 5.894531 -72.910156 6.390625 -78.695312 7.046875 -84.8125 C 7.367188 -87.320312 8.566406 -88.742188 10.640625 -89.078125 C 11.835938 -89.296875 13.144531 -89.457031 14.5625 -89.5625 C 15.988281 -89.664062 17.410156 -89.71875 18.828125 -89.71875 C 20.359375 -89.71875 21.882812 -89.664062 23.40625 -89.5625 C 24.9375 -89.457031 26.46875 -89.296875 28 -89.078125 C 29.09375 -88.960938 29.992188 -88.492188 30.703125 -87.671875 C 31.410156 -86.859375 31.597656 -85.851562 31.265625 -84.65625 C 30.835938 -83.226562 30.484375 -81.804688 30.203125 -80.390625 C 29.929688 -78.972656 29.742188 -77.71875 29.640625 -76.625 C 29.523438 -74.769531 29.820312 -73.757812 30.53125 -73.59375 C 31.238281 -73.4375 32.085938 -74.117188 33.078125 -75.640625 C 36.898438 -80.878906 41.019531 -84.644531 45.4375 -86.9375 C 49.851562 -89.226562 54.898438 -90.375 60.578125 -90.375 C 67.234375 -90.375 73.15625 -88.628906 78.34375 -85.140625 C 83.53125 -81.648438 87.675781 -76.65625 90.78125 -70.15625 C 93.894531 -63.664062 95.617188 -55.941406 95.953125 -46.984375 C 96.171875 -42.734375 96.359375 -38.613281 96.515625 -34.625 C 96.679688 -30.644531 96.816406 -26.28125 96.921875 -21.53125 C 97.035156 -16.78125 97.09375 -11.1875 97.09375 -4.75 C 97.09375 -3.332031 96.738281 -2.238281 96.03125 -1.46875 C 95.320312 -0.707031 94.367188 -0.21875 93.171875 0 C 91.859375 0.21875 90.328125 0.378906 88.578125 0.484375 C 86.828125 0.597656 85.519531 0.65625 84.65625 0.65625 C 83.664062 0.65625 82.160156 0.597656 80.140625 0.484375 C 78.128906 0.378906 76.359375 0.21875 74.828125 0 C 73.734375 -0.21875 72.773438 -0.707031 71.953125 -1.46875 C 71.140625 -2.238281 70.785156 -3.273438 70.890625 -4.578125 C 71.328125 -8.398438 71.65625 -12.578125 71.875 -17.109375 C 72.09375 -21.640625 72.253906 -26.03125 72.359375 -30.28125 C 72.472656 -34.539062 72.476562 -38.09375 72.375 -40.9375 C 72.257812 -49.664062 70.238281 -56.625 66.3125 -61.8125 C 62.382812 -67 57.09375 -69.59375 50.4375 -69.59375 C 44.101562 -69.59375 38.890625 -66.972656 34.796875 -61.734375 C 30.703125 -56.492188 28.65625 -49.453125 28.65625 -40.609375 C 28.757812 -35.910156 28.921875 -30.257812 29.140625 -23.65625 C 29.359375 -17.050781 29.851562 -10.691406 30.625 -4.578125 C 30.84375 -3.273438 30.539062 -2.238281 29.71875 -1.46875 C 28.894531 -0.707031 27.941406 -0.21875 26.859375 0 C 25.648438 0.21875 24.0625 0.378906 22.09375 0.484375 C 20.132812 0.597656 18.5 0.65625 17.1875 0.65625 Z M 17.1875 0.65625 "/></g></g></g><g fill="#f74200" fill-opacity="1"><g transform="translate(478.646451, 690.323597)"><g><path d="M 30.625 1.3125 C 22.320312 1.3125 15.632812 -0.648438 10.5625 -4.578125 C 5.488281 -8.515625 2.953125 -15.117188 2.953125 -24.390625 C 2.953125 -32.578125 5.867188 -39.046875 11.703125 -43.796875 C 17.546875 -48.546875 25.597656 -51.796875 35.859375 -53.546875 C 45.242188 -54.847656 51.847656 -56.179688 55.671875 -57.546875 C 59.492188 -58.910156 61.40625 -61.066406 61.40625 -64.015625 C 61.40625 -65.765625 60.203125 -67.398438 57.796875 -68.921875 C 55.398438 -70.453125 51.304688 -71.21875 45.515625 -71.21875 C 40.609375 -71.21875 35.535156 -70.453125 30.296875 -68.921875 C 25.054688 -67.398438 20.46875 -64.894531 16.53125 -61.40625 C 15.332031 -59.65625 13.941406 -59.160156 12.359375 -59.921875 C 10.773438 -60.691406 10.039062 -62.273438 10.15625 -64.671875 C 10.257812 -65.867188 10.421875 -67.53125 10.640625 -69.65625 C 10.859375 -71.789062 11.101562 -73.945312 11.375 -76.125 C 11.644531 -78.3125 11.835938 -79.953125 11.953125 -81.046875 C 12.273438 -83.671875 13.367188 -85.363281 15.234375 -86.125 C 24.285156 -88.957031 34.109375 -90.375 44.703125 -90.375 C 57.253906 -90.375 66.992188 -87.671875 73.921875 -82.265625 C 80.859375 -76.867188 84.867188 -68.222656 85.953125 -56.328125 C 86.285156 -52.179688 86.613281 -47.050781 86.9375 -40.9375 C 87.269531 -34.820312 87.597656 -28.597656 87.921875 -22.265625 C 88.253906 -15.929688 88.53125 -10.253906 88.75 -5.234375 C 88.75 -2.398438 87.21875 -0.707031 84.15625 -0.15625 C 83.0625 0.164062 81.695312 0.378906 80.0625 0.484375 C 78.425781 0.597656 76.84375 0.65625 75.3125 0.65625 C 74.007812 0.65625 72.347656 0.597656 70.328125 0.484375 C 68.304688 0.378906 66.640625 0.164062 65.328125 -0.15625 C 63.910156 -0.375 62.765625 -1.003906 61.890625 -2.046875 C 61.015625 -3.085938 60.6875 -4.316406 60.90625 -5.734375 C 61.125 -6.828125 61.367188 -8.242188 61.640625 -9.984375 C 61.921875 -11.734375 62.113281 -13.484375 62.21875 -15.234375 C 62.4375 -16.753906 62.082031 -17.648438 61.15625 -17.921875 C 60.226562 -18.203125 59.4375 -17.628906 58.78125 -16.203125 C 56.269531 -10.859375 52.394531 -6.601562 47.15625 -3.4375 C 41.914062 -0.269531 36.40625 1.3125 30.625 1.3125 Z M 41.75 -19 C 44.476562 -19 47.34375 -19.707031 50.34375 -21.125 C 53.34375 -22.539062 55.878906 -24.582031 57.953125 -27.25 C 60.035156 -29.925781 61.078125 -33.175781 61.078125 -37 C 61.078125 -39.625 60.285156 -41.78125 58.703125 -43.46875 C 57.117188 -45.164062 54.414062 -46.015625 50.59375 -46.015625 C 46.769531 -46.015625 43.113281 -45.300781 39.625 -43.875 C 36.132812 -42.457031 33.296875 -40.519531 31.109375 -38.0625 C 28.921875 -35.613281 27.828125 -32.695312 27.828125 -29.3125 C 27.828125 -25.59375 28.921875 -22.941406 31.109375 -21.359375 C 33.296875 -19.785156 36.84375 -19 41.75 -19 Z M 41.75 -19 "/></g></g></g><g fill="#f74200" fill-opacity="1"><g transform="translate(571.158595, 690.323597)"><g><path d="M 43.71875 1.140625 C 39.894531 1.140625 35.742188 0.867188 31.265625 0.328125 C 26.796875 -0.210938 22.429688 -0.921875 18.171875 -1.796875 C 13.910156 -2.671875 10.203125 -3.597656 7.046875 -4.578125 C 5.835938 -5.128906 4.851562 -5.867188 4.09375 -6.796875 C 3.332031 -7.722656 3.003906 -8.894531 3.109375 -10.3125 C 3.328125 -13.039062 3.488281 -15.710938 3.59375 -18.328125 C 3.707031 -20.953125 3.816406 -23.628906 3.921875 -26.359375 C 4.140625 -28.765625 4.984375 -30.15625 6.453125 -30.53125 C 7.929688 -30.914062 9.21875 -30.453125 10.3125 -29.140625 C 12.820312 -27.066406 15.878906 -25.179688 19.484375 -23.484375 C 23.085938 -21.796875 26.90625 -20.488281 30.9375 -19.5625 C 34.976562 -18.632812 38.800781 -18.171875 42.40625 -18.171875 C 47.96875 -18.171875 52.195312 -18.851562 55.09375 -20.21875 C 57.988281 -21.582031 59.4375 -23.847656 59.4375 -27.015625 C 59.4375 -29.421875 58.125 -31.382812 55.5 -32.90625 C 52.882812 -34.4375 49.53125 -35.800781 45.4375 -37 C 41.34375 -38.207031 37.003906 -39.460938 32.421875 -40.765625 C 27.835938 -42.078125 23.5 -43.769531 19.40625 -45.84375 C 15.3125 -47.914062 11.953125 -50.535156 9.328125 -53.703125 C 6.710938 -56.867188 5.40625 -60.910156 5.40625 -65.828125 C 5.40625 -71.171875 7.125 -75.644531 10.5625 -79.25 C 14 -82.851562 18.71875 -85.582031 24.71875 -87.4375 C 30.726562 -89.289062 37.550781 -90.21875 45.1875 -90.21875 C 49.226562 -90.21875 53.921875 -89.914062 59.265625 -89.3125 C 64.617188 -88.71875 69.207031 -87.816406 73.03125 -86.609375 C 75.863281 -85.523438 77.28125 -83.671875 77.28125 -81.046875 C 77.394531 -78.867188 77.453125 -76.660156 77.453125 -74.421875 C 77.453125 -72.179688 77.453125 -69.96875 77.453125 -67.78125 C 77.453125 -65.050781 76.738281 -63.519531 75.3125 -63.1875 C 73.894531 -62.863281 72.585938 -63.25 71.390625 -64.34375 C 68.328125 -66.53125 64.554688 -68.332031 60.078125 -69.75 C 55.609375 -71.164062 51.140625 -71.875 46.671875 -71.875 C 41.972656 -71.875 37.984375 -71.132812 34.703125 -69.65625 C 31.429688 -68.1875 29.796875 -66.195312 29.796875 -63.6875 C 29.796875 -61.507812 31.101562 -59.707031 33.71875 -58.28125 C 36.34375 -56.863281 39.703125 -55.582031 43.796875 -54.4375 C 47.890625 -53.289062 52.226562 -52.007812 56.8125 -50.59375 C 61.394531 -49.175781 65.734375 -47.398438 69.828125 -45.265625 C 73.921875 -43.140625 77.273438 -40.46875 79.890625 -37.25 C 82.515625 -34.03125 83.828125 -29.910156 83.828125 -24.890625 C 83.828125 -17.023438 80.414062 -10.71875 73.59375 -5.96875 C 66.769531 -1.226562 56.8125 1.140625 43.71875 1.140625 Z M 43.71875 1.140625 "/></g></g></g><g fill="#f74200" fill-opacity="1"><g transform="translate(658.10363, 690.323597)"><g/></g></g><g fill="#f74200" fill-opacity="1"><g transform="translate(702.149227, 690.323597)"><g><path d="M 16.703125 0.65625 C 15.828125 0.65625 14.460938 0.597656 12.609375 0.484375 C 10.753906 0.378906 9.117188 0.21875 7.703125 0 C 6.710938 -0.21875 5.863281 -0.707031 5.15625 -1.46875 C 4.445312 -2.238281 4.09375 -3.273438 4.09375 -4.578125 C 4.09375 -14.078125 4.117188 -22.484375 4.171875 -29.796875 C 4.222656 -37.109375 4.300781 -43.789062 4.40625 -49.84375 C 4.519531 -55.90625 4.710938 -61.75 4.984375 -67.375 C 5.265625 -73 5.625 -78.867188 6.0625 -84.984375 C 6.382812 -87.378906 7.582031 -88.742188 9.65625 -89.078125 C 10.863281 -89.296875 12.285156 -89.457031 13.921875 -89.5625 C 15.554688 -89.664062 17.082031 -89.71875 18.5 -89.71875 C 19.8125 -89.71875 21.445312 -89.664062 23.40625 -89.5625 C 25.375 -89.457031 26.847656 -89.296875 27.828125 -89.078125 C 29.140625 -88.859375 30.148438 -88.335938 30.859375 -87.515625 C 31.566406 -86.691406 31.757812 -85.738281 31.4375 -84.65625 C 30.894531 -82.582031 30.429688 -80.722656 30.046875 -79.078125 C 29.660156 -77.441406 29.46875 -75.535156 29.46875 -73.359375 C 29.46875 -71.710938 29.90625 -70.753906 30.78125 -70.484375 C 31.65625 -70.210938 32.421875 -70.953125 33.078125 -72.703125 C 35.691406 -78.921875 39.425781 -83.394531 44.28125 -86.125 C 49.144531 -88.851562 54.578125 -90.21875 60.578125 -90.21875 C 63.085938 -90.21875 65.707031 -89.914062 68.4375 -89.3125 C 71.164062 -88.71875 73.40625 -87.925781 75.15625 -86.9375 C 77.332031 -85.738281 78.421875 -84.050781 78.421875 -81.875 C 78.421875 -78.488281 78.394531 -75.347656 78.34375 -72.453125 C 78.289062 -69.554688 78.15625 -66.363281 77.9375 -62.875 C 77.832031 -60.800781 76.988281 -59.546875 75.40625 -59.109375 C 73.820312 -58.671875 72.425781 -59.109375 71.21875 -60.421875 C 68.269531 -62.929688 65.1875 -64.648438 61.96875 -65.578125 C 58.75 -66.503906 55.503906 -66.96875 52.234375 -66.96875 C 48.191406 -66.96875 44.394531 -65.847656 40.84375 -63.609375 C 37.300781 -61.367188 34.4375 -58.144531 32.25 -53.9375 C 30.070312 -49.738281 28.984375 -44.695312 28.984375 -38.8125 C 28.984375 -34.65625 29.117188 -30.367188 29.390625 -25.953125 C 29.660156 -21.535156 29.957031 -17.441406 30.28125 -13.671875 C 30.613281 -9.898438 30.835938 -6.867188 30.953125 -4.578125 C 31.054688 -3.160156 30.695312 -2.066406 29.875 -1.296875 C 29.0625 -0.535156 28.164062 -0.0507812 27.1875 0.15625 C 25.976562 0.269531 24.363281 0.378906 22.34375 0.484375 C 20.332031 0.597656 18.453125 0.65625 16.703125 0.65625 Z M 16.703125 0.65625 "/></g></g></g><g fill="#f74200" fill-opacity="1"><g transform="translate(783.3634, 690.323597)"><g><path d="M 40.28125 1.3125 C 27.832031 1.3125 18.710938 -2.613281 12.921875 -10.46875 C 7.140625 -18.332031 4.25 -28.976562 4.25 -42.40625 C 4.25 -48.625 4.441406 -55.007812 4.828125 -61.5625 C 5.210938 -68.113281 5.785156 -75.753906 6.546875 -84.484375 C 6.660156 -87.109375 7.972656 -88.691406 10.484375 -89.234375 C 11.785156 -89.453125 13.253906 -89.613281 14.890625 -89.71875 C 16.535156 -89.832031 17.738281 -89.890625 18.5 -89.890625 C 19.59375 -89.890625 21.203125 -89.832031 23.328125 -89.71875 C 25.460938 -89.613281 27.289062 -89.453125 28.8125 -89.234375 C 29.90625 -89.015625 30.832031 -88.519531 31.59375 -87.75 C 32.363281 -86.988281 32.640625 -85.957031 32.421875 -84.65625 C 31.867188 -80.832031 31.289062 -76.65625 30.6875 -72.125 C 30.09375 -67.59375 29.601562 -63.144531 29.21875 -58.78125 C 28.84375 -54.414062 28.65625 -50.648438 28.65625 -47.484375 C 28.65625 -38.753906 30.347656 -31.90625 33.734375 -26.9375 C 37.117188 -21.96875 42.578125 -19.484375 50.109375 -19.484375 C 55.992188 -19.484375 60.738281 -22.128906 64.34375 -27.421875 C 67.945312 -32.710938 69.75 -39.78125 69.75 -48.625 C 69.75 -53.425781 69.503906 -59.101562 69.015625 -65.65625 C 68.523438 -72.207031 67.734375 -78.484375 66.640625 -84.484375 C 66.421875 -85.796875 66.691406 -86.859375 67.453125 -87.671875 C 68.222656 -88.492188 69.097656 -89.015625 70.078125 -89.234375 C 71.273438 -89.453125 72.859375 -89.613281 74.828125 -89.71875 C 76.796875 -89.832031 78.429688 -89.890625 79.734375 -89.890625 C 81.265625 -89.890625 82.847656 -89.832031 84.484375 -89.71875 C 86.117188 -89.613281 87.648438 -89.453125 89.078125 -89.234375 C 91.367188 -88.910156 92.675781 -87.328125 93 -84.484375 C 93.65625 -74.984375 94.144531 -66.660156 94.46875 -59.515625 C 94.800781 -52.367188 95.046875 -45.820312 95.203125 -39.875 C 95.367188 -33.925781 95.425781 -28.140625 95.375 -22.515625 C 95.320312 -16.890625 95.296875 -10.800781 95.296875 -4.25 C 95.296875 -1.851562 94.203125 -0.382812 92.015625 0.15625 C 90.921875 0.375 89.632812 0.535156 88.15625 0.640625 C 86.6875 0.753906 85.242188 0.8125 83.828125 0.8125 C 82.410156 0.8125 80.882812 0.726562 79.25 0.5625 C 77.613281 0.40625 76.03125 0.269531 74.5 0.15625 C 73.40625 -0.0507812 72.503906 -0.566406 71.796875 -1.390625 C 71.085938 -2.210938 70.84375 -3.222656 71.0625 -4.421875 C 71.28125 -5.953125 71.414062 -7.425781 71.46875 -8.84375 C 71.519531 -10.257812 71.546875 -11.515625 71.546875 -12.609375 C 71.546875 -14.460938 71.191406 -15.441406 70.484375 -15.546875 C 69.773438 -15.660156 68.984375 -14.953125 68.109375 -13.421875 C 64.617188 -8.296875 60.609375 -4.554688 56.078125 -2.203125 C 51.546875 0.140625 46.28125 1.3125 40.28125 1.3125 Z M 40.28125 1.3125 "/></g></g></g><g fill="#f74200" fill-opacity="1"><g transform="translate(882.752536, 690.323597)"><g><path d="M 30.625 1.3125 C 22.320312 1.3125 15.632812 -0.648438 10.5625 -4.578125 C 5.488281 -8.515625 2.953125 -15.117188 2.953125 -24.390625 C 2.953125 -32.578125 5.867188 -39.046875 11.703125 -43.796875 C 17.546875 -48.546875 25.597656 -51.796875 35.859375 -53.546875 C 45.242188 -54.847656 51.847656 -56.179688 55.671875 -57.546875 C 59.492188 -58.910156 61.40625 -61.066406 61.40625 -64.015625 C 61.40625 -65.765625 60.203125 -67.398438 57.796875 -68.921875 C 55.398438 -70.453125 51.304688 -71.21875 45.515625 -71.21875 C 40.609375 -71.21875 35.535156 -70.453125 30.296875 -68.921875 C 25.054688 -67.398438 20.46875 -64.894531 16.53125 -61.40625 C 15.332031 -59.65625 13.941406 -59.160156 12.359375 -59.921875 C 10.773438 -60.691406 10.039062 -62.273438 10.15625 -64.671875 C 10.257812 -65.867188 10.421875 -67.53125 10.640625 -69.65625 C 10.859375 -71.789062 11.101562 -73.945312 11.375 -76.125 C 11.644531 -78.3125 11.835938 -79.953125 11.953125 -81.046875 C 12.273438 -83.671875 13.367188 -85.363281 15.234375 -86.125 C 24.285156 -88.957031 34.109375 -90.375 44.703125 -90.375 C 57.253906 -90.375 66.992188 -87.671875 73.921875 -82.265625 C 80.859375 -76.867188 84.867188 -68.222656 85.953125 -56.328125 C 86.285156 -52.179688 86.613281 -47.050781 86.9375 -40.9375 C 87.269531 -34.820312 87.597656 -28.597656 87.921875 -22.265625 C 88.253906 -15.929688 88.53125 -10.253906 88.75 -5.234375 C 88.75 -2.398438 87.21875 -0.707031 84.15625 -0.15625 C 83.0625 0.164062 81.695312 0.378906 80.0625 0.484375 C 78.425781 0.597656 76.84375 0.65625 75.3125 0.65625 C 74.007812 0.65625 72.347656 0.597656 70.328125 0.484375 C 68.304688 0.378906 66.640625 0.164062 65.328125 -0.15625 C 63.910156 -0.375 62.765625 -1.003906 61.890625 -2.046875 C 61.015625 -3.085938 60.6875 -4.316406 60.90625 -5.734375 C 61.125 -6.828125 61.367188 -8.242188 61.640625 -9.984375 C 61.921875 -11.734375 62.113281 -13.484375 62.21875 -15.234375 C 62.4375 -16.753906 62.082031 -17.648438 61.15625 -17.921875 C 60.226562 -18.203125 59.4375 -17.628906 58.78125 -16.203125 C 56.269531 -10.859375 52.394531 -6.601562 47.15625 -3.4375 C 41.914062 -0.269531 36.40625 1.3125 30.625 1.3125 Z M 41.75 -19 C 44.476562 -19 47.34375 -19.707031 50.34375 -21.125 C 53.34375 -22.539062 55.878906 -24.582031 57.953125 -27.25 C 60.035156 -29.925781 61.078125 -33.175781 61.078125 -37 C 61.078125 -39.625 60.285156 -41.78125 58.703125 -43.46875 C 57.117188 -45.164062 54.414062 -46.015625 50.59375 -46.015625 C 46.769531 -46.015625 43.113281 -45.300781 39.625 -43.875 C 36.132812 -42.457031 33.296875 -40.519531 31.109375 -38.0625 C 28.921875 -35.613281 27.828125 -32.695312 27.828125 -29.3125 C 27.828125 -25.59375 28.921875 -22.941406 31.109375 -21.359375 C 33.296875 -19.785156 36.84375 -19 41.75 -19 Z M 41.75 -19 "/></g></g></g><g fill="#f74200" fill-opacity="1"><g transform="translate(975.264689, 690.323597)"><g><path d="M 43.71875 1.140625 C 39.894531 1.140625 35.742188 0.867188 31.265625 0.328125 C 26.796875 -0.210938 22.429688 -0.921875 18.171875 -1.796875 C 13.910156 -2.671875 10.203125 -3.597656 7.046875 -4.578125 C 5.835938 -5.128906 4.851562 -5.867188 4.09375 -6.796875 C 3.332031 -7.722656 3.003906 -8.894531 3.109375 -10.3125 C 3.328125 -13.039062 3.488281 -15.710938 3.59375 -18.328125 C 3.707031 -20.953125 3.816406 -23.628906 3.921875 -26.359375 C 4.140625 -28.765625 4.984375 -30.15625 6.453125 -30.53125 C 7.929688 -30.914062 9.21875 -30.453125 10.3125 -29.140625 C 12.820312 -27.066406 15.878906 -25.179688 19.484375 -23.484375 C 23.085938 -21.796875 26.90625 -20.488281 30.9375 -19.5625 C 34.976562 -18.632812 38.800781 -18.171875 42.40625 -18.171875 C 47.96875 -18.171875 52.195312 -18.851562 55.09375 -20.21875 C 57.988281 -21.582031 59.4375 -23.847656 59.4375 -27.015625 C 59.4375 -29.421875 58.125 -31.382812 55.5 -32.90625 C 52.882812 -34.4375 49.53125 -35.800781 45.4375 -37 C 41.34375 -38.207031 37.003906 -39.460938 32.421875 -40.765625 C 27.835938 -42.078125 23.5 -43.769531 19.40625 -45.84375 C 15.3125 -47.914062 11.953125 -50.535156 9.328125 -53.703125 C 6.710938 -56.867188 5.40625 -60.910156 5.40625 -65.828125 C 5.40625 -71.171875 7.125 -75.644531 10.5625 -79.25 C 14 -82.851562 18.71875 -85.582031 24.71875 -87.4375 C 30.726562 -89.289062 37.550781 -90.21875 45.1875 -90.21875 C 49.226562 -90.21875 53.921875 -89.914062 59.265625 -89.3125 C 64.617188 -88.71875 69.207031 -87.816406 73.03125 -86.609375 C 75.863281 -85.523438 77.28125 -83.671875 77.28125 -81.046875 C 77.394531 -78.867188 77.453125 -76.660156 77.453125 -74.421875 C 77.453125 -72.179688 77.453125 -69.96875 77.453125 -67.78125 C 77.453125 -65.050781 76.738281 -63.519531 75.3125 -63.1875 C 73.894531 -62.863281 72.585938 -63.25 71.390625 -64.34375 C 68.328125 -66.53125 64.554688 -68.332031 60.078125 -69.75 C 55.609375 -71.164062 51.140625 -71.875 46.671875 -71.875 C 41.972656 -71.875 37.984375 -71.132812 34.703125 -69.65625 C 31.429688 -68.1875 29.796875 -66.195312 29.796875 -63.6875 C 29.796875 -61.507812 31.101562 -59.707031 33.71875 -58.28125 C 36.34375 -56.863281 39.703125 -55.582031 43.796875 -54.4375 C 47.890625 -53.289062 52.226562 -52.007812 56.8125 -50.59375 C 61.394531 -49.175781 65.734375 -47.398438 69.828125 -45.265625 C 73.921875 -43.140625 77.273438 -40.46875 79.890625 -37.25 C 82.515625 -34.03125 83.828125 -29.910156 83.828125 -24.890625 C 83.828125 -17.023438 80.414062 -10.71875 73.59375 -5.96875 C 66.769531 -1.226562 56.8125 1.140625 43.71875 1.140625 Z M 43.71875 1.140625 "/></g></g></g></svg>